# MagicaVoxel @ Ephtracy

# material
mtllib Musket.mtl
usemtl palette

# normals
vn -1 0 0
vn 1 0 0
vn 0 0 1
vn 0 0 -1
vn 0 -1 0
vn 0 1 0

# texcoords
vt 0.947266 0.5
vt 0.970703 0.5
vt 0.994141 0.5

# verts
v -9.5 25 15.5
v -9.5 25 14.5
v -9.5 26 15.5
v -9.5 26 14.5
v -8.5 25 14.5
v -8.5 25 13.5
v -8.5 26 14.5
v -8.5 26 13.5
v -7.5 24 14.5
v -7.5 24 13.5
v -7.5 25 14.5
v -7.5 25 13.5
v -7.5 25 12.5
v -7.5 26 14.5
v -7.5 26 13.5
v -7.5 26 12.5
v -7.5 27 14.5
v -7.5 27 13.5
v -6.5 24 13.5
v -6.5 24 12.5
v -6.5 25 13.5
v -6.5 25 12.5
v -6.5 25 11.5
v -6.5 26 13.5
v -6.5 26 12.5
v -6.5 26 11.5
v -6.5 27 13.5
v -6.5 27 12.5
v -5.5 24 12.5
v -5.5 24 11.5
v -5.5 25 12.5
v -5.5 25 11.5
v -5.5 25 10.5
v -5.5 26 12.5
v -5.5 26 11.5
v -5.5 26 10.5
v -5.5 27 12.5
v -5.5 27 11.5
v -3.5 25 15.5
v -3.5 25 14.5
v -3.5 25 13.5
v -3.5 25 12.5
v -3.5 26 15.5
v -3.5 26 14.5
v -3.5 26 13.5
v -3.5 26 12.5
v -2.5 25 14.5
v -2.5 25 13.5
v -2.5 26 14.5
v -2.5 26 13.5
v 15.5 24 11.5
v 15.5 24 10.5
v 15.5 25 11.5
v 15.5 25 10.5
v 15.5 25 9.5
v 15.5 26 11.5
v 15.5 26 10.5
v 15.5 26 9.5
v 15.5 27 11.5
v 15.5 27 10.5
v -6.5 24 14.5
v -6.5 24 13.5
v -6.5 25 15.5
v -6.5 25 14.5
v -6.5 25 13.5
v -6.5 26 15.5
v -6.5 26 14.5
v -6.5 26 13.5
v -6.5 27 14.5
v -6.5 27 13.5
v -5.5 24 13.5
v -5.5 24 12.5
v -5.5 25 14.5
v -5.5 25 13.5
v -5.5 25 12.5
v -5.5 26 14.5
v -5.5 26 13.5
v -5.5 26 12.5
v -5.5 27 13.5
v -5.5 27 12.5
v -4.5 25 13.5
v -4.5 25 12.5
v -4.5 26 13.5
v -4.5 26 12.5
v -1.5 25 15.5
v -1.5 25 13.5
v -1.5 26 15.5
v -1.5 26 13.5
v 16.5 24 12.5
v 16.5 24 10.5
v 16.5 25 13.5
v 16.5 25 12.5
v 16.5 25 11.5
v 16.5 25 10.5
v 16.5 25 9.5
v 16.5 26 13.5
v 16.5 26 12.5
v 16.5 26 11.5
v 16.5 26 10.5
v 16.5 26 9.5
v 16.5 27 12.5
v 16.5 27 10.5
v -9.5 25 15.5
v -9.5 26 15.5
v -6.5 25 15.5
v -6.5 26 15.5
v -3.5 25 15.5
v -3.5 26 15.5
v -1.5 25 15.5
v -1.5 26 15.5
v -7.5 24 14.5
v -7.5 25 14.5
v -7.5 26 14.5
v -7.5 27 14.5
v -6.5 24 14.5
v -6.5 25 14.5
v -6.5 26 14.5
v -6.5 27 14.5
v -5.5 25 14.5
v -5.5 26 14.5
v -6.5 24 13.5
v -6.5 25 13.5
v -6.5 26 13.5
v -6.5 27 13.5
v -5.5 24 13.5
v -5.5 25 13.5
v -5.5 26 13.5
v -5.5 27 13.5
v -4.5 25 13.5
v -4.5 26 13.5
v -3.5 25 13.5
v -3.5 26 13.5
v -2.5 25 13.5
v -2.5 26 13.5
v -1.5 25 13.5
v -1.5 26 13.5
v 16.5 25 13.5
v 16.5 26 13.5
v -5.5 24 12.5
v -5.5 25 12.5
v -5.5 26 12.5
v -5.5 27 12.5
v -4.5 25 12.5
v -4.5 26 12.5
v -3.5 25 12.5
v -3.5 26 12.5
v -2.5 24 12.5
v -2.5 25 12.5
v -2.5 26 12.5
v -2.5 27 12.5
v 16.5 24 12.5
v 16.5 25 12.5
v 16.5 26 12.5
v 16.5 27 12.5
v -9.5 25 14.5
v -9.5 26 14.5
v -8.5 25 14.5
v -8.5 26 14.5
v -3.5 25 14.5
v -3.5 26 14.5
v -2.5 25 14.5
v -2.5 26 14.5
v -8.5 25 13.5
v -8.5 26 13.5
v -7.5 24 13.5
v -7.5 25 13.5
v -7.5 26 13.5
v -7.5 27 13.5
v -6.5 24 13.5
v -6.5 25 13.5
v -6.5 26 13.5
v -6.5 27 13.5
v -7.5 25 12.5
v -7.5 26 12.5
v -6.5 24 12.5
v -6.5 25 12.5
v -6.5 26 12.5
v -6.5 27 12.5
v -5.5 24 12.5
v -5.5 25 12.5
v -5.5 26 12.5
v -5.5 27 12.5
v -6.5 25 11.5
v -6.5 26 11.5
v -5.5 24 11.5
v -5.5 25 11.5
v -5.5 26 11.5
v -5.5 27 11.5
v -2.5 24 11.5
v -2.5 25 11.5
v -2.5 26 11.5
v -2.5 27 11.5
v 15.5 24 11.5
v 15.5 25 11.5
v 15.5 26 11.5
v 15.5 27 11.5
v -5.5 25 10.5
v -5.5 26 10.5
v -2.5 25 10.5
v -2.5 26 10.5
v 15.5 24 10.5
v 15.5 25 10.5
v 15.5 26 10.5
v 15.5 27 10.5
v 16.5 24 10.5
v 16.5 25 10.5
v 16.5 26 10.5
v 16.5 27 10.5
v 15.5 25 9.5
v 15.5 26 9.5
v 16.5 25 9.5
v 16.5 26 9.5
v -7.5 24 14.5
v -6.5 24 14.5
v -7.5 24 13.5
v -6.5 24 13.5
v -5.5 24 13.5
v -6.5 24 12.5
v -5.5 24 12.5
v -2.5 24 12.5
v 16.5 24 12.5
v -5.5 24 11.5
v -2.5 24 11.5
v 15.5 24 11.5
v 15.5 24 10.5
v 16.5 24 10.5
v -9.5 25 15.5
v -6.5 25 15.5
v -3.5 25 15.5
v -1.5 25 15.5
v -9.5 25 14.5
v -8.5 25 14.5
v -7.5 25 14.5
v -6.5 25 14.5
v -5.5 25 14.5
v -3.5 25 14.5
v -2.5 25 14.5
v -8.5 25 13.5
v -7.5 25 13.5
v -6.5 25 13.5
v -5.5 25 13.5
v -4.5 25 13.5
v -3.5 25 13.5
v -2.5 25 13.5
v -1.5 25 13.5
v 16.5 25 13.5
v -7.5 25 12.5
v -6.5 25 12.5
v -5.5 25 12.5
v -4.5 25 12.5
v -3.5 25 12.5
v -2.5 25 12.5
v 16.5 25 12.5
v -6.5 25 11.5
v -5.5 25 11.5
v -2.5 25 11.5
v 15.5 25 11.5
v -5.5 25 10.5
v -2.5 25 10.5
v 15.5 25 10.5
v 16.5 25 10.5
v 15.5 25 9.5
v 16.5 25 9.5
v -9.5 26 15.5
v -6.5 26 15.5
v -3.5 26 15.5
v -1.5 26 15.5
v -9.5 26 14.5
v -8.5 26 14.5
v -7.5 26 14.5
v -6.5 26 14.5
v -5.5 26 14.5
v -3.5 26 14.5
v -2.5 26 14.5
v -8.5 26 13.5
v -7.5 26 13.5
v -6.5 26 13.5
v -5.5 26 13.5
v -4.5 26 13.5
v -3.5 26 13.5
v -2.5 26 13.5
v -1.5 26 13.5
v 16.5 26 13.5
v -7.5 26 12.5
v -6.5 26 12.5
v -5.5 26 12.5
v -4.5 26 12.5
v -3.5 26 12.5
v -2.5 26 12.5
v 16.5 26 12.5
v -6.5 26 11.5
v -5.5 26 11.5
v -2.5 26 11.5
v 15.5 26 11.5
v -5.5 26 10.5
v -2.5 26 10.5
v 15.5 26 10.5
v 16.5 26 10.5
v 15.5 26 9.5
v 16.5 26 9.5
v -7.5 27 14.5
v -6.5 27 14.5
v -7.5 27 13.5
v -6.5 27 13.5
v -5.5 27 13.5
v -6.5 27 12.5
v -5.5 27 12.5
v -2.5 27 12.5
v 16.5 27 12.5
v -5.5 27 11.5
v -2.5 27 11.5
v 15.5 27 11.5
v 15.5 27 10.5
v 16.5 27 10.5

# faces
f 3/1/1 2/1/1 1/1/1
f 4/1/1 2/1/1 3/1/1
f 7/1/1 6/1/1 5/1/1
f 8/1/1 6/1/1 7/1/1
f 11/1/1 10/1/1 9/1/1
f 12/1/1 10/1/1 11/1/1
f 15/1/1 13/1/1 12/1/1
f 16/1/1 13/1/1 15/1/1
f 17/1/1 15/1/1 14/1/1
f 18/1/1 15/1/1 17/1/1
f 21/1/1 20/1/1 19/1/1
f 22/1/1 20/1/1 21/1/1
f 25/1/1 23/1/1 22/1/1
f 26/1/1 23/1/1 25/1/1
f 27/1/1 25/1/1 24/1/1
f 28/1/1 25/1/1 27/1/1
f 31/1/1 30/1/1 29/1/1
f 32/1/1 30/1/1 31/1/1
f 35/1/1 33/1/1 32/1/1
f 36/1/1 33/1/1 35/1/1
f 37/1/1 35/1/1 34/1/1
f 38/1/1 35/1/1 37/1/1
f 43/2/1 40/2/1 39/2/1
f 44/2/1 40/2/1 43/2/1
f 45/1/1 42/1/1 41/1/1
f 46/1/1 42/1/1 45/1/1
f 49/2/1 48/2/1 47/2/1
f 50/2/1 48/2/1 49/2/1
f 53/2/1 52/2/1 51/2/1
f 54/2/1 52/2/1 53/2/1
f 57/2/1 55/2/1 54/2/1
f 58/2/1 55/2/1 57/2/1
f 59/2/1 57/2/1 56/2/1
f 60/2/1 57/2/1 59/2/1
f 61/1/2 62/1/2 64/1/2
f 64/1/2 62/1/2 65/1/2
f 63/1/2 64/1/2 66/1/2
f 66/1/2 64/1/2 67/1/2
f 67/1/2 68/1/2 69/1/2
f 69/1/2 68/1/2 70/1/2
f 71/1/2 72/1/2 74/1/2
f 74/1/2 72/1/2 75/1/2
f 73/1/2 74/1/2 76/1/2
f 76/1/2 74/1/2 77/1/2
f 77/1/2 78/1/2 79/1/2
f 79/1/2 78/1/2 80/1/2
f 81/1/2 82/1/2 83/1/2
f 83/1/2 82/1/2 84/1/2
f 85/2/2 86/2/2 87/2/2
f 87/2/2 86/2/2 88/2/2
f 89/2/2 90/2/2 92/2/2
f 92/2/2 90/2/2 93/2/2
f 93/2/2 90/2/2 94/2/2
f 91/2/2 92/2/2 96/2/2
f 92/3/2 93/3/2 97/3/2
f 96/2/2 92/2/2 97/2/2
f 94/2/2 95/2/2 98/2/2
f 97/3/2 93/3/2 98/3/2
f 93/2/2 94/2/2 98/2/2
f 98/2/2 95/2/2 99/2/2
f 99/2/2 95/2/2 100/2/2
f 97/2/2 98/2/2 101/2/2
f 98/2/2 99/2/2 101/2/2
f 101/2/2 99/2/2 102/2/2
f 105/1/3 104/1/3 103/1/3
f 106/1/3 104/1/3 105/1/3
f 109/2/3 108/2/3 107/2/3
f 110/2/3 108/2/3 109/2/3
f 115/1/3 112/1/3 111/1/3
f 116/1/3 112/1/3 115/1/3
f 117/1/3 114/1/3 113/1/3
f 118/1/3 114/1/3 117/1/3
f 119/1/3 117/1/3 116/1/3
f 120/1/3 117/1/3 119/1/3
f 125/1/3 122/1/3 121/1/3
f 126/1/3 122/1/3 125/1/3
f 127/1/3 124/1/3 123/1/3
f 128/1/3 124/1/3 127/1/3
f 129/1/3 127/1/3 126/1/3
f 130/1/3 127/1/3 129/1/3
f 133/1/3 132/1/3 131/1/3
f 134/1/3 132/1/3 133/1/3
f 137/2/3 136/2/3 135/2/3
f 138/2/3 136/2/3 137/2/3
f 143/1/3 140/1/3 139/1/3
f 144/1/3 142/1/3 141/1/3
f 145/1/3 143/1/3 139/1/3
f 145/1/3 144/1/3 143/1/3
f 146/1/3 142/1/3 144/1/3
f 146/1/3 144/1/3 145/1/3
f 147/1/3 145/1/3 139/1/3
f 148/1/3 145/1/3 147/1/3
f 149/1/3 142/1/3 146/1/3
f 150/1/3 142/1/3 149/1/3
f 151/2/3 148/2/3 147/2/3
f 152/2/3 148/2/3 151/2/3
f 153/2/3 150/2/3 149/2/3
f 154/2/3 150/2/3 153/2/3
f 155/1/4 156/1/4 157/1/4
f 157/1/4 156/1/4 158/1/4
f 159/2/4 160/2/4 161/2/4
f 161/2/4 160/2/4 162/2/4
f 163/1/4 164/1/4 166/1/4
f 166/1/4 164/1/4 167/1/4
f 165/1/4 166/1/4 169/1/4
f 169/1/4 166/1/4 170/1/4
f 167/1/4 168/1/4 171/1/4
f 171/1/4 168/1/4 172/1/4
f 173/1/4 174/1/4 176/1/4
f 176/1/4 174/1/4 177/1/4
f 175/1/4 176/1/4 179/1/4
f 179/1/4 176/1/4 180/1/4
f 177/1/4 178/1/4 181/1/4
f 181/1/4 178/1/4 182/1/4
f 183/1/4 184/1/4 186/1/4
f 186/1/4 184/1/4 187/1/4
f 185/1/4 186/1/4 189/1/4
f 189/1/4 186/1/4 190/1/4
f 187/1/4 188/1/4 191/1/4
f 191/1/4 188/1/4 192/1/4
f 189/2/4 190/2/4 193/2/4
f 193/2/4 190/2/4 194/2/4
f 191/2/4 192/2/4 195/2/4
f 195/2/4 192/2/4 196/2/4
f 197/1/4 198/1/4 199/1/4
f 199/1/4 198/1/4 200/1/4
f 199/2/4 200/2/4 202/2/4
f 202/2/4 200/2/4 203/2/4
f 201/2/4 202/2/4 205/2/4
f 205/2/4 202/2/4 206/2/4
f 203/2/4 204/2/4 207/2/4
f 207/2/4 204/2/4 208/2/4
f 209/2/4 210/2/4 211/2/4
f 211/2/4 210/2/4 212/2/4
f 215/1/5 214/1/5 213/1/5
f 216/1/5 214/1/5 215/1/5
f 218/1/5 217/1/5 216/1/5
f 219/1/5 217/1/5 218/1/5
f 222/1/5 220/1/5 219/1/5
f 223/2/5 221/2/5 220/2/5
f 223/1/5 220/1/5 222/1/5
f 224/2/5 221/2/5 223/2/5
f 225/2/5 221/2/5 224/2/5
f 226/2/5 221/2/5 225/2/5
f 231/1/5 228/1/5 227/1/5
f 232/1/5 228/1/5 231/1/5
f 233/1/5 228/1/5 232/1/5
f 234/1/5 228/1/5 233/1/5
f 236/2/5 230/2/5 229/2/5
f 237/2/5 230/2/5 236/2/5
f 238/1/5 233/1/5 232/1/5
f 239/1/5 233/1/5 238/1/5
f 240/1/5 235/1/5 234/1/5
f 241/1/5 235/1/5 240/1/5
f 244/2/5 230/2/5 237/2/5
f 245/2/5 230/2/5 244/2/5
f 247/1/5 240/1/5 239/1/5
f 248/1/5 240/1/5 247/1/5
f 249/1/5 242/1/5 241/1/5
f 250/1/5 242/1/5 249/1/5
f 251/1/5 244/1/5 243/1/5
f 252/2/5 246/2/5 245/2/5
f 252/1/5 244/1/5 251/1/5
f 252/2/5 245/2/5 244/2/5
f 253/2/5 246/2/5 252/2/5
f 254/1/5 249/1/5 248/1/5
f 255/1/5 249/1/5 254/1/5
f 258/1/5 256/1/5 255/1/5
f 259/2/5 257/2/5 256/2/5
f 259/1/5 256/1/5 258/1/5
f 260/2/5 257/2/5 259/2/5
f 262/2/5 261/2/5 260/2/5
f 263/2/5 261/2/5 262/2/5
f 264/1/6 265/1/6 268/1/6
f 268/1/6 265/1/6 269/1/6
f 269/1/6 265/1/6 270/1/6
f 270/1/6 265/1/6 271/1/6
f 266/2/6 267/2/6 273/2/6
f 273/2/6 267/2/6 274/2/6
f 269/1/6 270/1/6 275/1/6
f 275/1/6 270/1/6 276/1/6
f 271/1/6 272/1/6 277/1/6
f 277/1/6 272/1/6 278/1/6
f 274/2/6 267/2/6 281/2/6
f 281/2/6 267/2/6 282/2/6
f 276/1/6 277/1/6 284/1/6
f 284/1/6 277/1/6 285/1/6
f 278/1/6 279/1/6 286/1/6
f 286/1/6 279/1/6 287/1/6
f 280/1/6 281/1/6 288/1/6
f 282/2/6 283/2/6 289/2/6
f 288/1/6 281/1/6 289/1/6
f 281/2/6 282/2/6 289/2/6
f 289/2/6 283/2/6 290/2/6
f 285/1/6 286/1/6 291/1/6
f 291/1/6 286/1/6 292/1/6
f 292/1/6 293/1/6 295/1/6
f 293/2/6 294/2/6 296/2/6
f 295/1/6 293/1/6 296/1/6
f 296/2/6 294/2/6 297/2/6
f 297/2/6 298/2/6 299/2/6
f 299/2/6 298/2/6 300/2/6
f 301/1/6 302/1/6 303/1/6
f 303/1/6 302/1/6 304/1/6
f 304/1/6 305/1/6 306/1/6
f 306/1/6 305/1/6 307/1/6
f 307/1/6 308/1/6 310/1/6
f 308/2/6 309/2/6 311/2/6
f 310/1/6 308/1/6 311/1/6
f 311/2/6 309/2/6 312/2/6
f 312/2/6 309/2/6 313/2/6
f 313/2/6 309/2/6 314/2/6
