# MagicaVoxel @ Ephtracy

# material
mtllib Grave.mtl
usemtl palette

# normals
vn -1 0 0
vn 1 0 0
vn 0 0 1
vn 0 0 -1
vn 0 -1 0
vn 0 1 0

# texcoords
vt 0.0214844 0.5
vt 0.0332031 0.5
vt 0.529297 0.5
vt 0.853516 0.5

# verts
v -10 0 -9
v -10 0 -18
v -10 1 -9
v -10 1 -18
v -9 0 -6
v -9 0 -9
v -9 1 -6
v -9 1 -9
v -7 0 9
v -7 0 -4
v -7 0 -18
v -7 0 -20
v -7 1 9
v -7 1 -4
v -7 1 -18
v -7 1 -20
v -5 0 16
v -5 0 9
v -5 0 -4
v -5 0 -6
v -5 1 16
v -5 1 9
v -5 1 4
v -5 1 -4
v -5 1 -6
v -5 1 -14
v -5 2 4
v -5 2 -14
v -3 1 14
v -3 1 4
v -3 1 -15
v -3 1 -19
v -3 2 4
v -3 2 -12
v -3 3 14
v -3 3 -12
v -3 17 -15
v -3 17 -19
v -2 17 -15
v -2 17 -19
v -2 19 -15
v -2 19 -19
v -1 19 -15
v -1 19 -19
v -1 20 -15
v -1 20 -19
v 1 22 -17
v 1 22 -18
v 1 23 -17
v 1 23 -18
v 2 20 -17
v 2 20 -18
v 2 22 -17
v 2 22 -18
v 2 23 -17
v 2 23 -18
v 2 24 -17
v 2 24 -18
v 3 20 -17
v 3 20 -18
v 3 22 -17
v 3 22 -18
v 3 23 -17
v 3 23 -18
v 3 24 -17
v 3 24 -18
v 4 22 -17
v 4 22 -18
v 4 23 -17
v 4 23 -18
v 6 19 -15
v 6 19 -19
v 6 20 -15
v 6 20 -19
v 7 0 16
v 7 0 14
v 7 1 16
v 7 1 14
v 7 1 4
v 7 2 4
v 7 2 -12
v 7 3 14
v 7 3 -12
v 7 17 -15
v 7 17 -19
v 7 19 -15
v 7 19 -19
v 8 1 -15
v 8 1 -19
v 8 17 -15
v 8 17 -19
v 9 0 14
v 9 0 -6
v 9 0 -14
v 9 0 -20
v 9 1 14
v 9 1 4
v 9 1 -6
v 9 1 -14
v 9 1 -20
v 9 2 4
v 9 2 -14
v 11 0 -6
v 11 0 -7
v 11 1 -6
v 11 1 -7
v 12 0 -7
v 12 0 -14
v 12 1 -7
v 12 1 -14
v -5 0 16
v -5 1 16
v 7 0 16
v 7 1 16
v -3 1 14
v -3 3 14
v 7 0 14
v 7 1 14
v 7 3 14
v 9 0 14
v 9 1 14
v -7 0 9
v -7 1 9
v -5 0 9
v -5 1 9
v -5 1 4
v -5 2 4
v -3 1 4
v -3 2 4
v 7 1 4
v 7 2 4
v 9 1 4
v 9 2 4
v -9 0 -6
v -9 1 -6
v -5 0 -6
v -5 1 -6
v 9 0 -6
v 9 1 -6
v 11 0 -6
v 11 1 -6
v 11 0 -7
v 11 1 -7
v 12 0 -7
v 12 1 -7
v -10 0 -9
v -10 1 -9
v -9 0 -9
v -9 1 -9
v -3 1 -15
v -3 17 -15
v -2 13 -15
v -2 16 -15
v -2 17 -15
v -2 19 -15
v -1 13 -15
v -1 14 -15
v -1 19 -15
v -1 20 -15
v 0 13 -15
v 0 14 -15
v 0 15 -15
v 0 16 -15
v 1 13 -15
v 1 15 -15
v 2 13 -15
v 2 16 -15
v 3 13 -15
v 3 16 -15
v 4 13 -15
v 4 16 -15
v 5 13 -15
v 5 14 -15
v 6 19 -15
v 6 20 -15
v 7 14 -15
v 7 16 -15
v 7 17 -15
v 7 19 -15
v 8 1 -15
v 8 17 -15
v 1 22 -17
v 1 23 -17
v 2 20 -17
v 2 22 -17
v 2 23 -17
v 2 24 -17
v 3 20 -17
v 3 22 -17
v 3 23 -17
v 3 24 -17
v 4 22 -17
v 4 23 -17
v -7 0 -4
v -7 1 -4
v -5 0 -4
v -5 1 -4
v -3 2 -12
v -3 3 -12
v 7 2 -12
v 7 3 -12
v -5 1 -14
v -5 2 -14
v 9 0 -14
v 9 1 -14
v 9 2 -14
v 12 0 -14
v 12 1 -14
v -10 0 -18
v -10 1 -18
v -7 0 -18
v -7 1 -18
v 1 22 -18
v 1 23 -18
v 2 20 -18
v 2 22 -18
v 2 23 -18
v 2 24 -18
v 3 20 -18
v 3 22 -18
v 3 23 -18
v 3 24 -18
v 4 22 -18
v 4 23 -18
v -3 1 -19
v -3 17 -19
v -2 17 -19
v -2 19 -19
v -1 19 -19
v -1 20 -19
v 6 19 -19
v 6 20 -19
v 7 17 -19
v 7 19 -19
v 8 1 -19
v 8 17 -19
v -7 0 -20
v -7 1 -20
v 9 0 -20
v 9 1 -20
v -5 0 16
v 7 0 16
v 7 0 14
v 9 0 14
v -7 0 9
v -5 0 9
v -7 0 -4
v -5 0 -4
v -9 0 -6
v -5 0 -6
v 9 0 -6
v 11 0 -6
v 11 0 -7
v 12 0 -7
v -10 0 -9
v -9 0 -9
v 9 0 -14
v 12 0 -14
v -10 0 -18
v -7 0 -18
v -7 0 -20
v 9 0 -20
v 1 22 -17
v 2 22 -17
v 3 22 -17
v 4 22 -17
v 1 22 -18
v 2 22 -18
v 3 22 -18
v 4 22 -18
v -5 1 16
v 7 1 16
v -3 1 14
v 7 1 14
v 9 1 14
v -7 1 9
v -5 1 9
v -5 1 4
v -3 1 4
v 7 1 4
v 9 1 4
v -7 1 -4
v -5 1 -4
v -9 1 -6
v -5 1 -6
v 9 1 -6
v 11 1 -6
v 11 1 -7
v 12 1 -7
v -10 1 -9
v -9 1 -9
v -5 1 -14
v 9 1 -14
v 12 1 -14
v -3 1 -15
v 8 1 -15
v -10 1 -18
v -7 1 -18
v -3 1 -19
v 8 1 -19
v -7 1 -20
v 9 1 -20
v -5 2 4
v -3 2 4
v 7 2 4
v 9 2 4
v -3 2 -12
v 7 2 -12
v -5 2 -14
v 9 2 -14
v -3 3 14
v 7 3 14
v -3 3 -12
v 7 3 -12
v -3 17 -15
v -2 17 -15
v 7 17 -15
v 8 17 -15
v -3 17 -19
v -2 17 -19
v 7 17 -19
v 8 17 -19
v -2 19 -15
v -1 19 -15
v 6 19 -15
v 7 19 -15
v -2 19 -19
v -1 19 -19
v 6 19 -19
v 7 19 -19
v -1 20 -15
v 6 20 -15
v 2 20 -17
v 3 20 -17
v 2 20 -18
v 3 20 -18
v -1 20 -19
v 6 20 -19
v 1 23 -17
v 2 23 -17
v 3 23 -17
v 4 23 -17
v 1 23 -18
v 2 23 -18
v 3 23 -18
v 4 23 -18
v 2 24 -17
v 3 24 -17
v 2 24 -18
v 3 24 -18

# faces
f 3/3/1 2/3/1 1/3/1
f 4/3/1 2/3/1 3/3/1
f 7/3/1 6/3/1 5/3/1
f 8/3/1 6/3/1 7/3/1
f 13/3/1 10/3/1 9/3/1
f 14/3/1 10/3/1 13/3/1
f 15/3/1 12/3/1 11/3/1
f 16/3/1 12/3/1 15/3/1
f 21/3/1 18/3/1 17/3/1
f 22/3/1 18/3/1 21/3/1
f 24/3/1 20/3/1 19/3/1
f 25/3/1 20/3/1 24/3/1
f 27/3/1 26/3/1 25/3/1
f 27/3/1 25/3/1 24/3/1
f 27/3/1 24/3/1 23/3/1
f 28/3/1 26/3/1 27/3/1
f 33/3/1 30/3/1 29/3/1
f 35/3/1 33/3/1 29/3/1
f 35/3/1 34/3/1 33/3/1
f 36/3/1 34/3/1 35/3/1
f 37/1/1 32/1/1 31/1/1
f 38/1/1 32/1/1 37/1/1
f 41/1/1 40/1/1 39/1/1
f 42/1/1 40/1/1 41/1/1
f 45/1/1 44/1/1 43/1/1
f 46/1/1 44/1/1 45/1/1
f 49/4/1 48/4/1 47/4/1
f 50/4/1 48/4/1 49/4/1
f 53/4/1 52/4/1 51/4/1
f 54/4/1 52/4/1 53/4/1
f 57/4/1 56/4/1 55/4/1
f 58/4/1 56/4/1 57/4/1
f 59/4/2 60/4/2 61/4/2
f 61/4/2 60/4/2 62/4/2
f 63/4/2 64/4/2 65/4/2
f 65/4/2 64/4/2 66/4/2
f 67/4/2 68/4/2 69/4/2
f 69/4/2 68/4/2 70/4/2
f 71/1/2 72/1/2 73/1/2
f 73/1/2 72/1/2 74/1/2
f 75/3/2 76/3/2 77/3/2
f 77/3/2 76/3/2 78/3/2
f 78/3/2 79/3/2 80/3/2
f 78/3/2 80/3/2 82/3/2
f 80/3/2 81/3/2 82/3/2
f 82/3/2 81/3/2 83/3/2
f 84/1/2 85/1/2 86/1/2
f 86/1/2 85/1/2 87/1/2
f 88/1/2 89/1/2 90/1/2
f 90/1/2 89/1/2 91/1/2
f 92/3/2 93/3/2 96/3/2
f 96/3/2 93/3/2 97/3/2
f 97/3/2 93/3/2 98/3/2
f 94/3/2 95/3/2 99/3/2
f 99/3/2 95/3/2 100/3/2
f 97/3/2 98/3/2 101/3/2
f 98/3/2 99/3/2 101/3/2
f 101/3/2 99/3/2 102/3/2
f 103/3/2 104/3/2 105/3/2
f 105/3/2 104/3/2 106/3/2
f 107/3/2 108/3/2 109/3/2
f 109/3/2 108/3/2 110/3/2
f 113/3/3 112/3/3 111/3/3
f 114/3/3 112/3/3 113/3/3
f 118/3/3 116/3/3 115/3/3
f 119/3/3 116/3/3 118/3/3
f 120/3/3 118/3/3 117/3/3
f 121/3/3 118/3/3 120/3/3
f 124/3/3 123/3/3 122/3/3
f 125/3/3 123/3/3 124/3/3
f 128/3/3 127/3/3 126/3/3
f 129/3/3 127/3/3 128/3/3
f 132/3/3 131/3/3 130/3/3
f 133/3/3 131/3/3 132/3/3
f 136/3/3 135/3/3 134/3/3
f 137/3/3 135/3/3 136/3/3
f 140/3/3 139/3/3 138/3/3
f 141/3/3 139/3/3 140/3/3
f 144/3/3 143/3/3 142/3/3
f 145/3/3 143/3/3 144/3/3
f 148/3/3 147/3/3 146/3/3
f 149/3/3 147/3/3 148/3/3
f 152/1/3 151/1/3 150/1/3
f 153/1/3 151/1/3 152/1/3
f 154/1/3 151/1/3 153/1/3
f 156/1/3 152/1/3 150/1/3
f 156/2/3 153/2/3 152/2/3
f 157/2/3 153/2/3 156/2/3
f 158/1/3 155/1/3 154/1/3
f 158/1/3 154/1/3 153/1/3
f 160/1/3 157/1/3 156/1/3
f 160/1/3 156/1/3 150/1/3
f 161/2/3 153/2/3 157/2/3
f 161/1/3 157/1/3 160/1/3
f 162/2/3 153/2/3 161/2/3
f 163/1/3 159/1/3 158/1/3
f 163/2/3 153/2/3 162/2/3
f 163/1/3 158/1/3 153/1/3
f 164/1/3 160/1/3 150/1/3
f 164/2/3 162/2/3 161/2/3
f 164/2/3 161/2/3 160/2/3
f 165/1/3 163/1/3 162/1/3
f 165/2/3 162/2/3 164/2/3
f 166/1/3 164/1/3 150/1/3
f 166/1/3 165/1/3 164/1/3
f 167/1/3 159/1/3 163/1/3
f 167/1/3 165/1/3 166/1/3
f 167/1/3 163/1/3 165/1/3
f 168/1/3 166/1/3 150/1/3
f 168/2/3 167/2/3 166/2/3
f 169/1/3 159/1/3 167/1/3
f 169/2/3 167/2/3 168/2/3
f 170/1/3 168/1/3 150/1/3
f 170/1/3 169/1/3 168/1/3
f 171/1/3 159/1/3 169/1/3
f 171/1/3 169/1/3 170/1/3
f 172/1/3 170/1/3 150/1/3
f 172/2/3 171/2/3 170/2/3
f 173/2/3 171/2/3 172/2/3
f 174/1/3 159/1/3 171/1/3
f 175/1/3 159/1/3 174/1/3
f 176/2/3 171/2/3 173/2/3
f 176/1/3 173/1/3 172/1/3
f 177/1/3 174/1/3 171/1/3
f 177/2/3 171/2/3 176/2/3
f 178/1/3 174/1/3 177/1/3
f 179/1/3 174/1/3 178/1/3
f 180/1/3 172/1/3 150/1/3
f 180/1/3 176/1/3 172/1/3
f 180/1/3 178/1/3 177/1/3
f 180/1/3 177/1/3 176/1/3
f 181/1/3 178/1/3 180/1/3
f 185/4/3 183/4/3 182/4/3
f 186/4/3 183/4/3 185/4/3
f 188/4/3 185/4/3 184/4/3
f 188/4/3 187/4/3 186/4/3
f 188/4/3 186/4/3 185/4/3
f 189/4/3 187/4/3 188/4/3
f 190/4/3 187/4/3 189/4/3
f 191/4/3 187/4/3 190/4/3
f 192/4/3 190/4/3 189/4/3
f 193/4/3 190/4/3 192/4/3
f 194/3/4 195/3/4 196/3/4
f 196/3/4 195/3/4 197/3/4
f 198/3/4 199/3/4 200/3/4
f 200/3/4 199/3/4 201/3/4
f 202/3/4 203/3/4 205/3/4
f 205/3/4 203/3/4 206/3/4
f 204/3/4 205/3/4 207/3/4
f 207/3/4 205/3/4 208/3/4
f 209/3/4 210/3/4 211/3/4
f 211/3/4 210/3/4 212/3/4
f 213/4/4 214/4/4 216/4/4
f 216/4/4 214/4/4 217/4/4
f 215/4/4 216/4/4 219/4/4
f 217/4/4 218/4/4 219/4/4
f 216/4/4 217/4/4 219/4/4
f 219/4/4 218/4/4 220/4/4
f 220/4/4 218/4/4 221/4/4
f 221/4/4 218/4/4 222/4/4
f 220/4/4 221/4/4 223/4/4
f 223/4/4 221/4/4 224/4/4
f 225/1/4 226/1/4 227/1/4
f 227/1/4 228/1/4 229/1/4
f 227/1/4 229/1/4 231/1/4
f 229/1/4 230/1/4 231/1/4
f 231/1/4 230/1/4 232/1/4
f 225/1/4 227/1/4 233/1/4
f 227/1/4 231/1/4 233/1/4
f 233/1/4 231/1/4 234/1/4
f 225/1/4 233/1/4 235/1/4
f 235/1/4 233/1/4 236/1/4
f 237/3/4 238/3/4 239/3/4
f 239/3/4 238/3/4 240/3/4
f 243/3/5 242/3/5 241/3/5
f 246/3/5 243/3/5 241/3/5
f 246/3/5 244/3/5 243/3/5
f 247/3/5 246/3/5 245/3/5
f 248/3/5 244/3/5 246/3/5
f 248/3/5 246/3/5 247/3/5
f 250/3/5 244/3/5 248/3/5
f 251/3/5 244/3/5 250/3/5
f 253/3/5 250/3/5 249/3/5
f 253/3/5 252/3/5 251/3/5
f 253/3/5 251/3/5 250/3/5
f 256/3/5 253/3/5 249/3/5
f 256/3/5 254/3/5 253/3/5
f 257/3/5 254/3/5 256/3/5
f 257/3/5 256/3/5 255/3/5
f 258/3/5 254/3/5 257/3/5
f 259/3/5 257/3/5 255/3/5
f 260/3/5 257/3/5 259/3/5
f 261/3/5 257/3/5 260/3/5
f 262/3/5 257/3/5 261/3/5
f 267/4/5 264/4/5 263/4/5
f 268/4/5 264/4/5 267/4/5
f 269/4/5 266/4/5 265/4/5
f 270/4/5 266/4/5 269/4/5
f 271/3/6 272/3/6 273/3/6
f 273/3/6 272/3/6 274/3/6
f 271/3/6 273/3/6 277/3/6
f 277/3/6 273/3/6 278/3/6
f 276/3/6 277/3/6 278/3/6
f 278/3/6 273/3/6 279/3/6
f 274/3/6 275/3/6 280/3/6
f 280/3/6 275/3/6 281/3/6
f 276/3/6 278/3/6 282/3/6
f 282/3/6 278/3/6 283/3/6
f 286/3/6 287/3/6 288/3/6
f 284/3/6 285/3/6 291/3/6
f 291/3/6 285/3/6 292/3/6
f 290/3/6 291/3/6 292/3/6
f 288/3/6 289/3/6 293/3/6
f 286/3/6 288/3/6 293/3/6
f 293/3/6 289/3/6 294/3/6
f 292/3/6 293/3/6 295/3/6
f 295/3/6 293/3/6 296/3/6
f 290/3/6 292/3/6 297/3/6
f 292/3/6 295/3/6 297/3/6
f 297/3/6 295/3/6 298/3/6
f 298/3/6 295/3/6 299/3/6
f 296/3/6 293/3/6 300/3/6
f 298/3/6 299/3/6 301/3/6
f 299/3/6 300/3/6 301/3/6
f 300/3/6 293/3/6 302/3/6
f 301/3/6 300/3/6 302/3/6
f 303/3/6 304/3/6 307/3/6
f 305/3/6 306/3/6 308/3/6
f 303/3/6 307/3/6 309/3/6
f 307/3/6 308/3/6 309/3/6
f 308/3/6 306/3/6 310/3/6
f 309/3/6 308/3/6 310/3/6
f 311/3/6 312/3/6 313/3/6
f 313/3/6 312/3/6 314/3/6
f 315/1/6 316/1/6 319/1/6
f 319/1/6 316/1/6 320/1/6
f 317/1/6 318/1/6 321/1/6
f 321/1/6 318/1/6 322/1/6
f 323/1/6 324/1/6 327/1/6
f 327/1/6 324/1/6 328/1/6
f 325/1/6 326/1/6 329/1/6
f 329/1/6 326/1/6 330/1/6
f 331/1/6 332/1/6 333/1/6
f 333/1/6 332/1/6 334/1/6
f 331/1/6 333/1/6 335/1/6
f 334/1/6 332/1/6 336/1/6
f 331/1/6 335/1/6 337/1/6
f 335/1/6 336/1/6 337/1/6
f 336/1/6 332/1/6 338/1/6
f 337/1/6 336/1/6 338/1/6
f 339/4/6 340/4/6 343/4/6
f 343/4/6 340/4/6 344/4/6
f 341/4/6 342/4/6 345/4/6
f 345/4/6 342/4/6 346/4/6
f 347/4/6 348/4/6 349/4/6
f 349/4/6 348/4/6 350/4/6
