# MagicaVoxel @ Ephtracy

# material
mtllib ore2.mtl
usemtl palette

# normals
vn -1 0 0
vn 1 0 0
vn 0 0 1
vn 0 0 -1
vn 0 -1 0
vn 0 1 0

# texcoords
vt 0.306641 0.5
vt 0.974609 0.5
vt 0.978516 0.5

# verts
v -3.5 2 -1.5
v -3.5 2 -2.5
v -3.5 3 -1.5
v -3.5 3 -2.5
v -2.5 1 1.5
v -2.5 1 0.5
v -2.5 1 -0.5
v -2.5 1 -1.5
v -2.5 1 -3.5
v -2.5 2 0.5
v -2.5 2 -0.5
v -2.5 2 -1.5
v -2.5 2 -2.5
v -2.5 2 -3.5
v -2.5 3 1.5
v -2.5 3 0.5
v -2.5 3 -0.5
v -2.5 3 -1.5
v -2.5 3 -2.5
v -2.5 3 -3.5
v -2.5 4 0.5
v -2.5 4 -0.5
v -2.5 4 -2.5
v -2.5 5 -0.5
v -2.5 5 -2.5
v -2.5 6 0.5
v -2.5 6 -0.5
v -1.5 1 0.5
v -1.5 1 -0.5
v -1.5 2 0.5
v -1.5 2 -0.5
v -1.5 2 -3.5
v -1.5 2 -4.5
v -1.5 3 -0.5
v -1.5 3 -2.5
v -1.5 3 -3.5
v -1.5 3 -4.5
v -1.5 4 -0.5
v -1.5 4 -2.5
v -1.5 4 -3.5
v -1.5 5 -0.5
v -1.5 5 -2.5
v -1.5 6 -0.5
v -1.5 6 -2.5
v -0.5 0 1.5
v -0.5 0 0.5
v -0.5 0 -2.5
v -0.5 1 1.5
v -0.5 1 0.5
v -0.5 1 -2.5
v -0.5 1 -3.5
v -0.5 1 -4.5
v -0.5 2 2.5
v -0.5 2 1.5
v -0.5 2 -3.5
v -0.5 2 -4.5
v -0.5 3 2.5
v -0.5 3 1.5
v -0.5 3 0.5
v -0.5 4 1.5
v -0.5 4 0.5
v -0.5 4 -2.5
v -0.5 4 -3.5
v -0.5 5 -2.5
v -0.5 5 -3.5
v 0.5 0 -2.5
v 0.5 0 -3.5
v 0.5 1 2.5
v 0.5 1 1.5
v 0.5 1 -2.5
v 0.5 1 -3.5
v 0.5 2 2.5
v 0.5 2 1.5
v 0.5 2 -2.5
v 0.5 2 -3.5
v 0.5 3 -2.5
v 0.5 3 -3.5
v 0.5 3 -4.5
v 0.5 4 -3.5
v 0.5 4 -4.5
v 0.5 5 0.5
v 0.5 5 -0.5
v 0.5 5 -1.5
v 0.5 5 -2.5
v 0.5 6 0.5
v 0.5 6 -0.5
v 0.5 6 -1.5
v 0.5 6 -2.5
v 1.5 0 1.5
v 1.5 0 0.5
v 1.5 1 1.5
v 1.5 1 0.5
v 1.5 1 -3.5
v 1.5 1 -4.5
v 1.5 2 2.5
v 1.5 2 1.5
v 1.5 2 -3.5
v 1.5 2 -4.5
v 1.5 3 2.5
v 1.5 3 1.5
v 1.5 4 1.5
v 1.5 4 0.5
v 1.5 5 1.5
v 1.5 5 0.5
v 2.5 2 0.5
v 2.5 2 -0.5
v 2.5 3 0.5
v 2.5 3 -0.5
v -1.5 5 0.5
v -1.5 5 -0.5
v -1.5 6 0.5
v -1.5 6 -0.5
v -0.5 2 -2.5
v -0.5 2 -3.5
v -0.5 3 -2.5
v -0.5 3 -3.5
v -0.5 5 -1.5
v -0.5 5 -2.5
v -0.5 6 -1.5
v -0.5 6 -2.5
v 0.5 0 1.5
v 0.5 0 0.5
v 0.5 1 1.5
v 0.5 1 0.5
v 0.5 1 -3.5
v 0.5 1 -4.5
v 0.5 2 2.5
v 0.5 2 1.5
v 0.5 2 -3.5
v 0.5 3 2.5
v 0.5 3 1.5
v 0.5 3 -3.5
v 0.5 3 -4.5
v 1.5 0 -0.5
v 1.5 0 -1.5
v 1.5 0 -2.5
v 1.5 0 -3.5
v 1.5 1 2.5
v 1.5 1 1.5
v 1.5 1 -0.5
v 1.5 1 -1.5
v 1.5 1 -2.5
v 1.5 1 -3.5
v 1.5 2 2.5
v 1.5 2 1.5
v 1.5 2 0.5
v 1.5 2 -0.5
v 1.5 2 -2.5
v 1.5 2 -3.5
v 1.5 3 0.5
v 1.5 3 -0.5
v 1.5 3 -2.5
v 1.5 3 -3.5
v 1.5 3 -4.5
v 1.5 4 -3.5
v 1.5 4 -4.5
v 1.5 5 0.5
v 1.5 5 -0.5
v 1.5 5 -1.5
v 1.5 5 -2.5
v 1.5 5 -3.5
v 1.5 6 0.5
v 1.5 6 -0.5
v 1.5 6 -1.5
v 1.5 6 -2.5
v 2.5 0 0.5
v 2.5 0 -0.5
v 2.5 1 0.5
v 2.5 1 -0.5
v 2.5 1 -1.5
v 2.5 1 -2.5
v 2.5 1 -3.5
v 2.5 1 -4.5
v 2.5 2 -1.5
v 2.5 2 -2.5
v 2.5 2 -3.5
v 2.5 2 -4.5
v 2.5 3 -1.5
v 2.5 3 -2.5
v 2.5 3 -3.5
v 2.5 4 1.5
v 2.5 4 0.5
v 2.5 5 1.5
v 2.5 5 0.5
v 2.5 5 -0.5
v 2.5 5 -1.5
v 2.5 6 -0.5
v 2.5 6 -1.5
v 3.5 0 1.5
v 3.5 0 0.5
v 3.5 0 -1.5
v 3.5 0 -2.5
v 3.5 1 1.5
v 3.5 1 0.5
v 3.5 1 -0.5
v 3.5 1 -1.5
v 3.5 1 -2.5
v 3.5 2 2.5
v 3.5 2 1.5
v 3.5 2 0.5
v 3.5 2 -0.5
v 3.5 2 -1.5
v 3.5 3 2.5
v 3.5 3 1.5
v 3.5 3 0.5
v 3.5 3 -0.5
v 3.5 3 -1.5
v 3.5 3 -2.5
v 3.5 4 0.5
v 3.5 4 -0.5
v 3.5 4 -1.5
v 3.5 4 -2.5
v 3.5 5 0.5
v 3.5 5 -1.5
v 4.5 1 1.5
v 4.5 1 0.5
v 4.5 2 1.5
v 4.5 2 0.5
v 4.5 2 -0.5
v 4.5 3 1.5
v 4.5 3 0.5
v 4.5 3 -0.5
v 4.5 3 -1.5
v 4.5 4 1.5
v 4.5 4 0.5
v 4.5 4 -0.5
v 4.5 4 -1.5
v 4.5 4 -2.5
v 4.5 5 -1.5
v 4.5 5 -2.5
v -0.5 2 2.5
v -0.5 3 2.5
v 0.5 1 2.5
v 0.5 2 2.5
v 0.5 3 2.5
v 1.5 1 2.5
v 1.5 2 2.5
v 1.5 3 2.5
v 2.5 2 2.5
v 2.5 3 2.5
v 3.5 2 2.5
v 3.5 3 2.5
v -2.5 1 1.5
v -2.5 3 1.5
v -1.5 1 1.5
v -1.5 3 1.5
v -0.5 0 1.5
v -0.5 1 1.5
v -0.5 2 1.5
v -0.5 3 1.5
v -0.5 4 1.5
v 0.5 0 1.5
v 0.5 1 1.5
v 0.5 2 1.5
v 0.5 3 1.5
v 0.5 4 1.5
v 1.5 0 1.5
v 1.5 1 1.5
v 1.5 2 1.5
v 1.5 3 1.5
v 1.5 4 1.5
v 1.5 5 1.5
v 2.5 0 1.5
v 2.5 2 1.5
v 2.5 3 1.5
v 2.5 4 1.5
v 2.5 5 1.5
v 3.5 0 1.5
v 3.5 1 1.5
v 3.5 2 1.5
v 3.5 3 1.5
v 3.5 4 1.5
v 4.5 1 1.5
v 4.5 2 1.5
v 4.5 3 1.5
v 4.5 4 1.5
v -2.5 3 0.5
v -2.5 4 0.5
v -2.5 6 0.5
v -1.5 3 0.5
v -1.5 4 0.5
v -1.5 5 0.5
v -1.5 6 0.5
v -0.5 3 0.5
v -0.5 4 0.5
v -0.5 5 0.5
v 0.5 0 0.5
v 0.5 1 0.5
v 0.5 4 0.5
v 0.5 5 0.5
v 0.5 6 0.5
v 1.5 0 0.5
v 1.5 1 0.5
v 1.5 4 0.5
v 1.5 5 0.5
v 1.5 6 0.5
v 2.5 4 0.5
v 2.5 5 0.5
v 3.5 2 0.5
v 3.5 3 0.5
v 3.5 4 0.5
v 3.5 5 0.5
v 4.5 2 0.5
v 4.5 3 0.5
v -2.5 1 -0.5
v -2.5 2 -0.5
v -1.5 1 -0.5
v -1.5 2 -0.5
v -1.5 5 -0.5
v -1.5 6 -0.5
v -0.5 5 -0.5
v -0.5 6 -0.5
v 0.5 5 -0.5
v 0.5 6 -0.5
v 1.5 2 -0.5
v 1.5 3 -0.5
v 1.5 5 -0.5
v 1.5 6 -0.5
v 2.5 2 -0.5
v 2.5 3 -0.5
v 2.5 5 -0.5
v 2.5 6 -0.5
v 3.5 3 -0.5
v 3.5 4 -0.5
v 4.5 3 -0.5
v 4.5 4 -0.5
v -3.5 2 -1.5
v -3.5 3 -1.5
v -2.5 2 -1.5
v -2.5 3 -1.5
v 1.5 0 -1.5
v 1.5 1 -1.5
v 2.5 1 -1.5
v 3.5 0 -1.5
v 3.5 1 -1.5
v 3.5 4 -1.5
v 3.5 5 -1.5
v 4.5 4 -1.5
v 4.5 5 -1.5
v -0.5 2 -3.5
v -0.5 3 -3.5
v 0.5 2 -3.5
v 0.5 3 -3.5
v 1.5 1 -3.5
v 1.5 2 -3.5
v 2.5 1 -3.5
v 2.5 2 -3.5
v -2.5 1 0.5
v -2.5 2 0.5
v -1.5 1 0.5
v -1.5 2 0.5
v 1.5 2 0.5
v 1.5 3 0.5
v 2.5 0 0.5
v 2.5 1 0.5
v 2.5 2 0.5
v 2.5 3 0.5
v 3.5 0 0.5
v 3.5 1 0.5
v 3.5 2 0.5
v 3.5 3 0.5
v 3.5 4 0.5
v 4.5 1 0.5
v 4.5 2 0.5
v 4.5 3 0.5
v 4.5 4 0.5
v -2.5 3 -0.5
v -2.5 4 -0.5
v -2.5 5 -0.5
v -2.5 6 -0.5
v -1.5 3 -0.5
v -1.5 4 -0.5
v -1.5 5 -0.5
v -1.5 6 -0.5
v 1.5 0 -0.5
v 1.5 1 -0.5
v 2.5 0 -0.5
v 2.5 1 -0.5
v 3.5 2 -0.5
v 3.5 3 -0.5
v 4.5 2 -0.5
v 4.5 3 -0.5
v -0.5 5 -1.5
v -0.5 6 -1.5
v 0.5 5 -1.5
v 0.5 6 -1.5
v 1.5 5 -1.5
v 1.5 6 -1.5
v 2.5 1 -1.5
v 2.5 2 -1.5
v 2.5 3 -1.5
v 2.5 5 -1.5
v 2.5 6 -1.5
v 3.5 1 -1.5
v 3.5 2 -1.5
v 3.5 3 -1.5
v 3.5 4 -1.5
v 4.5 3 -1.5
v 4.5 4 -1.5
v -3.5 2 -2.5
v -3.5 3 -2.5
v -2.5 2 -2.5
v -2.5 3 -2.5
v -2.5 4 -2.5
v -2.5 5 -2.5
v -1.5 4 -2.5
v -1.5 5 -2.5
v -1.5 6 -2.5
v -0.5 0 -2.5
v -0.5 1 -2.5
v -0.5 2 -2.5
v -0.5 3 -2.5
v -0.5 4 -2.5
v -0.5 5 -2.5
v -0.5 6 -2.5
v 0.5 0 -2.5
v 0.5 1 -2.5
v 0.5 2 -2.5
v 0.5 3 -2.5
v 0.5 5 -2.5
v 0.5 6 -2.5
v 1.5 0 -2.5
v 1.5 1 -2.5
v 1.5 2 -2.5
v 1.5 3 -2.5
v 1.5 5 -2.5
v 1.5 6 -2.5
v 2.5 1 -2.5
v 2.5 2 -2.5
v 2.5 3 -2.5
v 2.5 5 -2.5
v 3.5 0 -2.5
v 3.5 1 -2.5
v 3.5 3 -2.5
v 3.5 4 -2.5
v 3.5 5 -2.5
v 4.5 4 -2.5
v 4.5 5 -2.5
v -2.5 1 -3.5
v -2.5 2 -3.5
v -2.5 3 -3.5
v -1.5 1 -3.5
v -1.5 2 -3.5
v -1.5 3 -3.5
v -1.5 4 -3.5
v -0.5 1 -3.5
v -0.5 2 -3.5
v -0.5 4 -3.5
v -0.5 5 -3.5
v 0.5 0 -3.5
v 0.5 1 -3.5
v 0.5 2 -3.5
v 0.5 3 -3.5
v 0.5 4 -3.5
v 1.5 0 -3.5
v 1.5 1 -3.5
v 1.5 2 -3.5
v 1.5 3 -3.5
v 1.5 4 -3.5
v 1.5 5 -3.5
v 2.5 2 -3.5
v 2.5 3 -3.5
v -1.5 2 -4.5
v -1.5 3 -4.5
v -0.5 1 -4.5
v -0.5 2 -4.5
v 0.5 1 -4.5
v 0.5 3 -4.5
v 0.5 4 -4.5
v 1.5 1 -4.5
v 1.5 2 -4.5
v 1.5 3 -4.5
v 1.5 4 -4.5
v 2.5 1 -4.5
v 2.5 2 -4.5
v -0.5 0 1.5
v 0.5 0 1.5
v 1.5 0 1.5
v 2.5 0 1.5
v 3.5 0 1.5
v -0.5 0 0.5
v 0.5 0 0.5
v 1.5 0 0.5
v 2.5 0 0.5
v 3.5 0 0.5
v 0.5 0 -0.5
v 1.5 0 -0.5
v 2.5 0 -0.5
v 1.5 0 -1.5
v 3.5 0 -1.5
v -0.5 0 -2.5
v 0.5 0 -2.5
v 1.5 0 -2.5
v 3.5 0 -2.5
v 0.5 0 -3.5
v 1.5 0 -3.5
v 0.5 1 2.5
v 1.5 1 2.5
v -2.5 1 1.5
v -1.5 1 1.5
v -0.5 1 1.5
v 0.5 1 1.5
v 1.5 1 1.5
v 3.5 1 1.5
v 4.5 1 1.5
v -2.5 1 0.5
v -1.5 1 0.5
v -0.5 1 0.5
v 0.5 1 0.5
v 1.5 1 0.5
v 2.5 1 0.5
v 3.5 1 0.5
v 4.5 1 0.5
v -2.5 1 -0.5
v -1.5 1 -0.5
v 1.5 1 -0.5
v 2.5 1 -0.5
v 3.5 1 -0.5
v -2.5 1 -1.5
v -1.5 1 -1.5
v 1.5 1 -1.5
v 2.5 1 -1.5
v 3.5 1 -1.5
v -1.5 1 -2.5
v -0.5 1 -2.5
v 0.5 1 -2.5
v -2.5 1 -3.5
v -1.5 1 -3.5
v -0.5 1 -3.5
v 0.5 1 -3.5
v 1.5 1 -3.5
v 2.5 1 -3.5
v -0.5 1 -4.5
v 0.5 1 -4.5
v 1.5 1 -4.5
v 2.5 1 -4.5
v -0.5 2 2.5
v 0.5 2 2.5
v 1.5 2 2.5
v 2.5 2 2.5
v 3.5 2 2.5
v -0.5 2 1.5
v 0.5 2 1.5
v 1.5 2 1.5
v 2.5 2 1.5
v 3.5 2 1.5
v -2.5 2 0.5
v -1.5 2 0.5
v 3.5 2 0.5
v 4.5 2 0.5
v -2.5 2 -0.5
v -1.5 2 -0.5
v 3.5 2 -0.5
v 4.5 2 -0.5
v -3.5 2 -1.5
v -2.5 2 -1.5
v -3.5 2 -2.5
v -2.5 2 -2.5
v 1.5 2 -2.5
v 2.5 2 -2.5
v -1.5 2 -3.5
v -0.5 2 -3.5
v 1.5 2 -3.5
v 2.5 2 -3.5
v -1.5 2 -4.5
v -0.5 2 -4.5
v 3.5 3 1.5
v 4.5 3 1.5
v 1.5 3 0.5
v 2.5 3 0.5
v 3.5 3 0.5
v 4.5 3 0.5
v 1.5 3 -0.5
v 2.5 3 -0.5
v 3.5 3 -0.5
v 4.5 3 -0.5
v 2.5 3 -1.5
v 3.5 3 -1.5
v 4.5 3 -1.5
v -0.5 3 -2.5
v 0.5 3 -2.5
v 2.5 3 -2.5
v 3.5 3 -2.5
v -0.5 3 -3.5
v 0.5 3 -3.5
v 1.5 3 -3.5
v 0.5 3 -4.5
v 1.5 3 -4.5
v -2.5 4 -0.5
v -1.5 4 -0.5
v 3.5 4 -1.5
v 4.5 4 -1.5
v -2.5 4 -2.5
v -1.5 4 -2.5
v 3.5 4 -2.5
v 4.5 4 -2.5
v 2.5 1 -1.5
v 3.5 1 -1.5
v 2.5 1 -2.5
v 3.5 1 -2.5
v 0.5 2 2.5
v 1.5 2 2.5
v 0.5 2 1.5
v 1.5 2 1.5
v 3.5 2 1.5
v 4.5 2 1.5
v 1.5 2 0.5
v 2.5 2 0.5
v 3.5 2 0.5
v 4.5 2 0.5
v 1.5 2 -0.5
v 2.5 2 -0.5
v -0.5 2 -2.5
v 0.5 2 -2.5
v -0.5 2 -3.5
v 0.5 2 -3.5
v 1.5 2 -3.5
v 2.5 2 -3.5
v 1.5 2 -4.5
v 2.5 2 -4.5
v -0.5 3 2.5
v 0.5 3 2.5
v 1.5 3 2.5
v 2.5 3 2.5
v 3.5 3 2.5
v -2.5 3 1.5
v -1.5 3 1.5
v -0.5 3 1.5
v 0.5 3 1.5
v 1.5 3 1.5
v 2.5 3 1.5
v 3.5 3 1.5
v -2.5 3 0.5
v -1.5 3 0.5
v -0.5 3 0.5
v 3.5 3 0.5
v 4.5 3 0.5
v -2.5 3 -0.5
v -1.5 3 -0.5
v 3.5 3 -0.5
v 4.5 3 -0.5
v -3.5 3 -1.5
v -2.5 3 -1.5
v -3.5 3 -2.5
v -2.5 3 -2.5
v -1.5 3 -2.5
v 1.5 3 -2.5
v 2.5 3 -2.5
v -2.5 3 -3.5
v -1.5 3 -3.5
v 0.5 3 -3.5
v 1.5 3 -3.5
v 2.5 3 -3.5
v -1.5 3 -4.5
v 0.5 3 -4.5
v -0.5 4 1.5
v 0.5 4 1.5
v 1.5 4 1.5
v 2.5 4 1.5
v 3.5 4 1.5
v 4.5 4 1.5
v -0.5 4 0.5
v 0.5 4 0.5
v 1.5 4 0.5
v 2.5 4 0.5
v 3.5 4 0.5
v 4.5 4 0.5
v 3.5 4 -0.5
v 4.5 4 -0.5
v 3.5 4 -1.5
v 4.5 4 -1.5
v -1.5 4 -2.5
v -0.5 4 -2.5
v -1.5 4 -3.5
v -0.5 4 -3.5
v 0.5 4 -3.5
v 1.5 4 -3.5
v 0.5 4 -4.5
v 1.5 4 -4.5
v 1.5 5 1.5
v 2.5 5 1.5
v -1.5 5 0.5
v -0.5 5 0.5
v 0.5 5 0.5
v 1.5 5 0.5
v 2.5 5 0.5
v 3.5 5 0.5
v -2.5 5 -0.5
v -1.5 5 -0.5
v -0.5 5 -0.5
v 0.5 5 -0.5
v 1.5 5 -0.5
v 2.5 5 -0.5
v -0.5 5 -1.5
v 0.5 5 -1.5
v 1.5 5 -1.5
v 2.5 5 -1.5
v 3.5 5 -1.5
v 4.5 5 -1.5
v -2.5 5 -2.5
v -1.5 5 -2.5
v -0.5 5 -2.5
v 0.5 5 -2.5
v 1.5 5 -2.5
v 2.5 5 -2.5
v 3.5 5 -2.5
v 4.5 5 -2.5
v -0.5 5 -3.5
v 1.5 5 -3.5
v -2.5 6 0.5
v -1.5 6 0.5
v 0.5 6 0.5
v 1.5 6 0.5
v -2.5 6 -0.5
v -1.5 6 -0.5
v -0.5 6 -0.5
v 0.5 6 -0.5
v 1.5 6 -0.5
v 2.5 6 -0.5
v -0.5 6 -1.5
v 0.5 6 -1.5
v 1.5 6 -1.5
v 2.5 6 -1.5
v -1.5 6 -2.5
v -0.5 6 -2.5
v 0.5 6 -2.5
v 1.5 6 -2.5

# faces
f 3/1/1 2/1/1 1/1/1
f 4/1/1 2/1/1 3/1/1
f 10/1/1 6/1/1 5/1/1
f 11/3/1 8/3/1 7/3/1
f 12/1/1 9/1/1 8/1/1
f 12/3/1 8/3/1 11/3/1
f 13/1/1 9/1/1 12/1/1
f 14/1/1 9/1/1 13/1/1
f 15/1/1 11/1/1 10/1/1
f 15/1/1 10/1/1 5/1/1
f 16/1/1 11/1/1 15/1/1
f 17/3/1 12/3/1 11/3/1
f 17/1/1 11/1/1 16/1/1
f 18/3/1 12/3/1 17/3/1
f 19/2/1 14/2/1 13/2/1
f 20/2/1 14/2/1 19/2/1
f 21/3/1 17/3/1 16/3/1
f 22/3/1 17/3/1 21/3/1
f 24/2/1 22/2/1 21/2/1
f 24/2/1 23/2/1 22/2/1
f 25/2/1 23/2/1 24/2/1
f 26/2/1 24/2/1 21/2/1
f 27/2/1 24/2/1 26/2/1
f 30/3/1 29/3/1 28/3/1
f 31/3/1 29/3/1 30/3/1
f 36/2/1 33/2/1 32/2/1
f 37/2/1 33/2/1 36/2/1
f 38/3/1 35/3/1 34/3/1
f 39/1/1 36/1/1 35/1/1
f 39/3/1 35/3/1 38/3/1
f 40/1/1 36/1/1 39/1/1
f 43/2/1 42/2/1 41/2/1
f 44/2/1 42/2/1 43/2/1
f 48/2/1 46/2/1 45/2/1
f 49/3/1 47/3/1 46/3/1
f 49/2/1 46/2/1 48/2/1
f 50/3/1 47/3/1 49/3/1
f 55/2/1 52/2/1 51/2/1
f 56/2/1 52/2/1 55/2/1
f 57/1/1 54/1/1 53/1/1
f 58/1/1 54/1/1 57/1/1
f 60/3/1 59/3/1 58/3/1
f 61/3/1 59/3/1 60/3/1
f 64/2/1 63/2/1 62/2/1
f 65/2/1 63/2/1 64/2/1
f 70/3/1 67/3/1 66/3/1
f 71/3/1 67/3/1 70/3/1
f 72/2/1 69/2/1 68/2/1
f 73/2/1 69/2/1 72/2/1
f 76/2/1 75/2/1 74/2/1
f 77/2/1 75/2/1 76/2/1
f 79/1/1 78/1/1 77/1/1
f 80/1/1 78/1/1 79/1/1
f 85/2/1 82/2/1 81/2/1
f 86/2/1 82/2/1 85/2/1
f 87/2/1 84/2/1 83/2/1
f 88/2/1 84/2/1 87/2/1
f 91/2/1 90/2/1 89/2/1
f 92/2/1 90/2/1 91/2/1
f 97/2/1 94/2/1 93/2/1
f 98/2/1 94/2/1 97/2/1
f 99/2/1 96/2/1 95/2/1
f 100/2/1 96/2/1 99/2/1
f 103/1/1 102/1/1 101/1/1
f 104/1/1 102/1/1 103/1/1
f 107/2/1 106/2/1 105/2/1
f 108/2/1 106/2/1 107/2/1
f 109/2/2 110/2/2 111/2/2
f 111/2/2 110/2/2 112/2/2
f 113/2/2 114/2/2 115/2/2
f 115/2/2 114/2/2 116/2/2
f 117/2/2 118/2/2 119/2/2
f 119/2/2 118/2/2 120/2/2
f 121/2/2 122/2/2 123/2/2
f 123/2/2 122/2/2 124/2/2
f 125/2/2 126/2/2 129/2/2
f 127/1/2 128/1/2 130/1/2
f 130/1/2 128/1/2 131/1/2
f 129/2/2 126/2/2 132/2/2
f 132/2/2 126/2/2 133/2/2
f 134/3/2 135/3/2 140/3/2
f 140/3/2 135/3/2 141/3/2
f 136/3/2 137/3/2 142/3/2
f 142/3/2 137/3/2 143/3/2
f 138/2/2 139/2/2 144/2/2
f 144/2/2 139/2/2 145/2/2
f 142/1/2 143/1/2 148/1/2
f 148/1/2 143/1/2 149/1/2
f 146/3/2 147/3/2 150/3/2
f 150/3/2 147/3/2 151/3/2
f 152/2/2 153/2/2 155/2/2
f 153/1/2 154/1/2 155/1/2
f 155/1/2 154/1/2 156/1/2
f 152/2/2 155/2/2 160/2/2
f 160/2/2 155/2/2 161/2/2
f 157/2/2 158/2/2 162/2/2
f 162/2/2 158/2/2 163/2/2
f 159/2/2 160/2/2 164/2/2
f 164/2/2 160/2/2 165/2/2
f 166/3/2 167/3/2 168/3/2
f 168/3/2 167/3/2 169/3/2
f 170/1/2 171/1/2 174/1/2
f 174/1/2 171/1/2 175/1/2
f 172/2/2 173/2/2 176/2/2
f 176/2/2 173/2/2 177/2/2
f 174/2/2 175/2/2 178/2/2
f 175/2/2 176/2/2 178/2/2
f 178/2/2 176/2/2 179/2/2
f 179/2/2 176/2/2 180/2/2
f 181/1/2 182/1/2 183/1/2
f 183/1/2 182/1/2 184/1/2
f 185/2/2 186/2/2 187/2/2
f 187/2/2 186/2/2 188/2/2
f 189/1/2 190/1/2 193/1/2
f 193/1/2 190/1/2 194/1/2
f 191/3/2 192/3/2 196/3/2
f 196/3/2 192/3/2 197/3/2
f 194/2/2 195/2/2 200/2/2
f 195/1/2 196/1/2 201/1/2
f 200/2/2 195/2/2 201/2/2
f 201/1/2 196/1/2 202/1/2
f 198/1/2 199/1/2 203/1/2
f 199/2/2 200/2/2 204/2/2
f 203/1/2 199/1/2 204/1/2
f 204/2/2 200/2/2 205/2/2
f 201/2/2 202/2/2 206/2/2
f 206/2/2 202/2/2 207/2/2
f 205/2/2 206/2/2 209/2/2
f 209/2/2 206/2/2 210/2/2
f 207/1/2 208/1/2 211/1/2
f 211/1/2 208/1/2 212/1/2
f 209/2/2 210/2/2 213/2/2
f 210/2/2 211/2/2 213/2/2
f 213/2/2 211/2/2 214/2/2
f 215/2/2 216/2/2 217/2/2
f 217/2/2 216/2/2 218/2/2
f 218/2/2 219/2/2 221/2/2
f 221/2/2 219/2/2 222/2/2
f 220/1/2 221/1/2 224/1/2
f 224/1/2 221/1/2 225/1/2
f 222/2/2 223/2/2 226/2/2
f 226/2/2 223/2/2 227/2/2
f 227/2/2 228/2/2 229/2/2
f 229/2/2 228/2/2 230/2/2
f 234/1/3 232/1/3 231/1/3
f 235/1/3 232/1/3 234/1/3
f 236/2/3 234/2/3 233/2/3
f 237/2/3 234/2/3 236/2/3
f 239/2/3 238/2/3 237/2/3
f 240/2/3 238/2/3 239/2/3
f 241/1/3 240/1/3 239/1/3
f 242/1/3 240/1/3 241/1/3
f 245/1/3 244/1/3 243/1/3
f 246/1/3 244/1/3 245/1/3
f 248/3/3 246/3/3 245/3/3
f 249/3/3 246/3/3 248/3/3
f 250/3/3 246/3/3 249/3/3
f 252/2/3 248/2/3 247/2/3
f 253/3/3 249/3/3 248/3/3
f 253/2/3 248/2/3 252/2/3
f 254/3/3 249/3/3 253/3/3
f 255/3/3 251/3/3 250/3/3
f 256/3/3 251/3/3 255/3/3
f 259/3/3 255/3/3 254/3/3
f 260/1/3 256/1/3 255/1/3
f 260/3/3 255/3/3 259/3/3
f 261/1/3 256/1/3 260/1/3
f 263/2/3 259/2/3 258/2/3
f 263/2/3 258/2/3 257/2/3
f 264/2/3 259/2/3 263/2/3
f 265/1/3 261/1/3 260/1/3
f 265/1/3 262/1/3 261/1/3
f 266/1/3 262/1/3 265/1/3
f 267/1/3 262/1/3 266/1/3
f 268/1/3 264/1/3 263/1/3
f 269/1/3 264/1/3 268/1/3
f 270/1/3 264/1/3 269/1/3
f 271/2/3 266/2/3 265/2/3
f 272/2/3 266/2/3 271/2/3
f 273/2/3 270/2/3 269/2/3
f 274/2/3 270/2/3 273/2/3
f 275/1/3 272/1/3 271/1/3
f 276/1/3 272/1/3 275/1/3
f 280/3/3 278/3/3 277/3/3
f 281/2/3 279/2/3 278/2/3
f 281/3/3 278/3/3 280/3/3
f 282/2/3 279/2/3 281/2/3
f 283/2/3 279/2/3 282/2/3
f 284/3/3 281/3/3 280/3/3
f 284/3/3 282/3/3 281/3/3
f 285/3/3 282/3/3 284/3/3
f 286/3/3 282/3/3 285/3/3
f 289/1/3 286/1/3 285/1/3
f 290/1/3 286/1/3 289/1/3
f 292/2/3 288/2/3 287/2/3
f 293/2/3 288/2/3 292/2/3
f 294/1/3 290/1/3 289/1/3
f 295/2/3 291/2/3 290/2/3
f 295/1/3 290/1/3 294/1/3
f 296/2/3 291/2/3 295/2/3
f 301/2/3 298/2/3 297/2/3
f 302/2/3 298/2/3 301/2/3
f 303/2/3 300/2/3 299/2/3
f 304/2/3 300/2/3 303/2/3
f 307/3/3 306/3/3 305/3/3
f 308/3/3 306/3/3 307/3/3
f 311/2/3 310/2/3 309/2/3
f 312/2/3 310/2/3 311/2/3
f 313/1/3 312/1/3 311/1/3
f 314/1/3 312/1/3 313/1/3
f 319/2/3 316/2/3 315/2/3
f 320/2/3 316/2/3 319/2/3
f 321/2/3 318/2/3 317/2/3
f 322/2/3 318/2/3 321/2/3
f 325/2/3 324/2/3 323/2/3
f 326/2/3 324/2/3 325/2/3
f 329/1/3 328/1/3 327/1/3
f 330/1/3 328/1/3 329/1/3
f 333/3/3 332/3/3 331/3/3
f 334/3/3 333/3/3 331/3/3
f 335/3/3 333/3/3 334/3/3
f 338/2/3 337/2/3 336/2/3
f 339/2/3 337/2/3 338/2/3
f 342/2/3 341/2/3 340/2/3
f 343/2/3 341/2/3 342/2/3
f 346/2/3 345/2/3 344/2/3
f 347/2/3 345/2/3 346/2/3
f 348/1/4 349/1/4 350/1/4
f 350/1/4 349/1/4 351/1/4
f 352/2/4 353/2/4 356/2/4
f 356/2/4 353/2/4 357/2/4
f 354/1/4 355/1/4 358/1/4
f 358/1/4 355/1/4 359/1/4
f 359/2/4 360/2/4 363/2/4
f 363/2/4 360/2/4 364/2/4
f 361/1/4 362/1/4 365/1/4
f 365/1/4 362/1/4 366/1/4
f 367/3/4 368/3/4 371/3/4
f 371/3/4 368/3/4 372/3/4
f 369/2/4 370/2/4 373/2/4
f 373/2/4 370/2/4 374/2/4
f 375/3/4 376/3/4 377/3/4
f 377/3/4 376/3/4 378/3/4
f 379/2/4 380/2/4 381/2/4
f 381/2/4 380/2/4 382/2/4
f 383/1/4 384/1/4 385/1/4
f 385/1/4 384/1/4 386/1/4
f 387/2/4 388/2/4 392/2/4
f 392/2/4 388/2/4 393/2/4
f 389/1/4 390/1/4 394/1/4
f 390/2/4 391/2/4 395/2/4
f 394/1/4 390/1/4 395/1/4
f 395/2/4 391/2/4 396/2/4
f 396/2/4 397/2/4 398/2/4
f 398/2/4 397/2/4 399/2/4
f 400/1/4 401/1/4 402/1/4
f 402/1/4 401/1/4 403/1/4
f 404/2/4 405/2/4 406/2/4
f 406/2/4 405/2/4 407/2/4
f 406/1/4 407/1/4 413/1/4
f 407/2/4 408/2/4 414/2/4
f 413/1/4 407/1/4 414/1/4
f 414/2/4 408/2/4 415/2/4
f 409/3/4 410/3/4 416/3/4
f 416/3/4 410/3/4 417/3/4
f 411/3/4 412/3/4 418/3/4
f 418/3/4 412/3/4 419/3/4
f 420/2/4 421/2/4 426/2/4
f 426/2/4 421/2/4 427/2/4
f 423/1/4 424/1/4 428/1/4
f 422/3/4 423/3/4 428/3/4
f 428/1/4 424/1/4 429/1/4
f 425/2/4 426/2/4 430/2/4
f 430/2/4 426/2/4 431/2/4
f 422/3/4 428/3/4 432/3/4
f 432/3/4 428/3/4 433/3/4
f 430/1/4 431/1/4 434/1/4
f 434/1/4 431/1/4 435/1/4
f 435/1/4 431/1/4 436/1/4
f 435/2/4 436/2/4 437/2/4
f 437/2/4 436/2/4 438/2/4
f 439/1/4 440/1/4 442/1/4
f 440/2/4 441/2/4 443/2/4
f 442/1/4 440/1/4 443/1/4
f 443/2/4 441/2/4 444/2/4
f 442/2/4 443/2/4 446/2/4
f 446/2/4 443/2/4 447/2/4
f 444/1/4 445/1/4 448/1/4
f 444/1/4 448/1/4 453/1/4
f 448/2/4 449/2/4 454/2/4
f 453/1/4 448/1/4 454/1/4
f 450/3/4 451/3/4 455/3/4
f 451/1/4 452/1/4 456/1/4
f 455/3/4 451/3/4 456/3/4
f 452/2/4 453/2/4 457/2/4
f 456/1/4 452/1/4 457/1/4
f 457/2/4 453/2/4 458/2/4
f 454/2/4 449/2/4 459/2/4
f 459/2/4 449/2/4 460/2/4
f 457/2/4 458/2/4 461/2/4
f 461/2/4 458/2/4 462/2/4
f 463/2/4 464/2/4 466/2/4
f 465/2/4 466/2/4 467/2/4
f 466/2/4 464/2/4 468/2/4
f 467/2/4 466/2/4 468/2/4
f 468/1/4 469/1/4 472/1/4
f 472/1/4 469/1/4 473/1/4
f 470/2/4 471/2/4 474/2/4
f 474/2/4 471/2/4 475/2/4
f 481/2/5 477/2/5 476/2/5
f 482/2/5 477/2/5 481/2/5
f 483/2/5 479/2/5 478/2/5
f 484/1/5 480/1/5 479/1/5
f 484/2/5 479/2/5 483/2/5
f 485/1/5 480/1/5 484/1/5
f 486/2/5 483/2/5 482/2/5
f 486/3/5 482/3/5 481/3/5
f 487/3/5 484/3/5 483/3/5
f 487/2/5 483/2/5 486/2/5
f 488/3/5 484/3/5 487/3/5
f 489/3/5 487/3/5 486/3/5
f 491/3/5 486/3/5 481/3/5
f 491/3/5 490/3/5 489/3/5
f 491/3/5 489/3/5 486/3/5
f 492/3/5 490/3/5 491/3/5
f 493/3/5 490/3/5 492/3/5
f 494/3/5 490/3/5 493/3/5
f 495/3/5 493/3/5 492/3/5
f 496/3/5 493/3/5 495/3/5
f 502/2/5 498/2/5 497/2/5
f 503/2/5 498/2/5 502/2/5
f 506/1/5 500/1/5 499/1/5
f 507/3/5 501/3/5 500/3/5
f 507/1/5 500/1/5 506/1/5
f 508/3/5 501/3/5 507/3/5
f 509/3/5 503/3/5 502/3/5
f 510/3/5 503/3/5 509/3/5
f 512/2/5 505/2/5 504/2/5
f 513/2/5 505/2/5 512/2/5
f 515/3/5 508/3/5 507/3/5
f 517/2/5 512/2/5 511/2/5
f 518/2/5 512/2/5 517/2/5
f 519/3/5 515/3/5 514/3/5
f 520/3/5 508/3/5 515/3/5
f 520/3/5 515/3/5 519/3/5
f 521/2/5 517/2/5 516/2/5
f 522/1/5 518/1/5 517/1/5
f 522/2/5 517/2/5 521/2/5
f 523/1/5 518/1/5 522/1/5
f 524/3/5 508/3/5 520/3/5
f 524/1/5 520/1/5 519/1/5
f 525/3/5 508/3/5 524/3/5
f 527/1/5 524/1/5 519/1/5
f 528/2/5 526/2/5 525/2/5
f 528/1/5 524/1/5 527/1/5
f 528/2/5 525/2/5 524/2/5
f 529/2/5 526/2/5 528/2/5
f 530/2/5 526/2/5 529/2/5
f 533/2/5 530/2/5 529/2/5
f 534/2/5 530/2/5 533/2/5
f 535/2/5 532/2/5 531/2/5
f 536/2/5 532/2/5 535/2/5
f 542/1/5 538/1/5 537/1/5
f 543/1/5 538/1/5 542/1/5
f 544/2/5 540/2/5 539/2/5
f 545/1/5 541/1/5 540/1/5
f 545/2/5 540/2/5 544/2/5
f 546/1/5 541/1/5 545/1/5
f 551/1/5 548/1/5 547/1/5
f 552/1/5 548/1/5 551/1/5
f 553/2/5 550/2/5 549/2/5
f 554/2/5 550/2/5 553/2/5
f 557/1/5 556/1/5 555/1/5
f 558/1/5 556/1/5 557/1/5
f 563/2/5 560/2/5 559/2/5
f 564/2/5 560/2/5 563/2/5
f 565/2/5 562/2/5 561/2/5
f 566/2/5 562/2/5 565/2/5
f 571/1/5 568/1/5 567/1/5
f 572/1/5 568/1/5 571/1/5
f 573/2/5 570/2/5 569/2/5
f 574/2/5 570/2/5 573/2/5
f 578/2/5 576/2/5 575/2/5
f 579/2/5 576/2/5 578/2/5
f 582/1/5 578/1/5 577/1/5
f 583/1/5 578/1/5 582/1/5
f 584/1/5 581/1/5 580/1/5
f 585/1/5 581/1/5 584/1/5
f 587/1/5 586/1/5 585/1/5
f 588/1/5 586/1/5 587/1/5
f 593/2/5 590/2/5 589/2/5
f 594/2/5 590/2/5 593/2/5
f 595/2/5 592/2/5 591/2/5
f 596/2/5 592/2/5 595/2/5
f 597/3/6 598/3/6 599/3/6
f 599/3/6 598/3/6 600/3/6
f 601/2/6 602/2/6 603/2/6
f 603/2/6 602/2/6 604/2/6
f 605/2/6 606/2/6 609/2/6
f 609/2/6 606/2/6 610/2/6
f 607/2/6 608/2/6 611/2/6
f 611/2/6 608/2/6 612/2/6
f 613/2/6 614/2/6 615/2/6
f 615/2/6 614/2/6 616/2/6
f 617/2/6 618/2/6 619/2/6
f 619/2/6 618/2/6 620/2/6
f 621/1/6 622/1/6 628/1/6
f 628/1/6 622/1/6 629/1/6
f 623/2/6 624/2/6 630/2/6
f 624/1/6 625/1/6 631/1/6
f 630/2/6 624/2/6 631/2/6
f 631/1/6 625/1/6 632/1/6
f 626/1/6 627/1/6 633/1/6
f 627/3/6 628/3/6 634/3/6
f 633/1/6 627/1/6 634/1/6
f 634/3/6 628/3/6 635/3/6
f 636/2/6 637/2/6 640/2/6
f 640/2/6 637/2/6 641/2/6
f 638/3/6 639/3/6 643/3/6
f 642/1/6 643/1/6 644/1/6
f 643/3/6 639/3/6 645/3/6
f 644/1/6 643/1/6 645/1/6
f 645/3/6 639/3/6 646/3/6
f 645/2/6 646/2/6 649/2/6
f 649/2/6 646/2/6 650/2/6
f 647/2/6 648/2/6 652/2/6
f 652/2/6 648/2/6 653/2/6
f 650/2/6 651/2/6 654/2/6
f 654/2/6 651/2/6 655/2/6
f 656/3/6 657/3/6 662/3/6
f 657/1/6 658/1/6 663/1/6
f 662/3/6 657/3/6 663/3/6
f 663/1/6 658/1/6 664/1/6
f 659/2/6 660/2/6 665/2/6
f 660/1/6 661/1/6 666/1/6
f 665/2/6 660/2/6 666/2/6
f 666/1/6 661/1/6 667/1/6
f 668/2/6 669/2/6 670/2/6
f 670/2/6 669/2/6 671/2/6
f 672/1/6 673/1/6 674/1/6
f 674/1/6 673/1/6 675/1/6
f 676/1/6 677/1/6 678/1/6
f 678/1/6 677/1/6 679/1/6
f 680/1/6 681/1/6 685/1/6
f 685/1/6 681/1/6 686/1/6
f 682/3/6 683/3/6 689/3/6
f 683/1/6 684/1/6 690/1/6
f 689/3/6 683/3/6 690/3/6
f 690/1/6 684/1/6 691/1/6
f 686/2/6 687/2/6 692/2/6
f 685/2/6 686/2/6 692/2/6
f 692/2/6 687/2/6 693/2/6
f 693/2/6 687/2/6 697/2/6
f 697/2/6 687/2/6 698/2/6
f 688/2/6 689/2/6 700/2/6
f 700/2/6 689/2/6 701/2/6
f 694/2/6 695/2/6 702/2/6
f 702/2/6 695/2/6 703/2/6
f 696/2/6 697/2/6 704/2/6
f 697/1/6 698/1/6 705/1/6
f 704/2/6 697/2/6 705/2/6
f 698/2/6 699/2/6 706/2/6
f 705/1/6 698/1/6 706/1/6
f 706/2/6 699/2/6 707/2/6
f 702/2/6 703/2/6 708/2/6
f 703/2/6 704/2/6 708/2/6
f 708/2/6 704/2/6 709/2/6
f 710/2/6 711/2/6 714/2/6
f 714/2/6 711/2/6 715/2/6
f 712/2/6 713/2/6 717/2/6
f 717/2/6 713/2/6 718/2/6
f 715/2/6 716/2/6 720/2/6
f 716/1/6 717/1/6 720/1/6
f 718/2/6 719/2/6 721/2/6
f 720/1/6 717/1/6 721/1/6
f 717/2/6 718/2/6 721/2/6
f 721/2/6 719/2/6 722/2/6
f 722/2/6 719/2/6 723/2/6
f 715/2/6 720/2/6 724/2/6
f 724/2/6 720/2/6 725/2/6
f 721/2/6 722/2/6 726/2/6
f 726/2/6 722/2/6 727/2/6
