# MagicaVoxel @ Ephtracy

# material
mtllib rock2.mtl
usemtl palette

# normals
vn -1 0 0
vn 1 0 0
vn 0 0 1
vn 0 0 -1
vn 0 -1 0
vn 0 1 0

# texcoords
vt 0.978516 0.5
vt 0.982422 0.5

# verts
v -3.5 0 -0.5
v -3.5 0 -1.5
v -3.5 1 -0.5
v -3.5 1 -1.5
v -2.5 0 0.5
v -2.5 0 -0.5
v -2.5 0 -1.5
v -2.5 0 -3.5
v -2.5 1 0.5
v -2.5 1 -0.5
v -2.5 1 -1.5
v -2.5 1 -3.5
v -2.5 2 0.5
v -2.5 2 -0.5
v -2.5 2 -1.5
v -2.5 2 -3.5
v -2.5 3 -0.5
v -2.5 3 -1.5
v -1.5 0 1.5
v -1.5 0 0.5
v -1.5 0 -3.5
v -1.5 0 -4.5
v -1.5 1 1.5
v -1.5 1 0.5
v -1.5 1 -3.5
v -1.5 1 -4.5
v -1.5 2 -1.5
v -1.5 2 -2.5
v -1.5 2 -3.5
v -1.5 2 -4.5
v -1.5 3 -1.5
v -1.5 3 -2.5
v -1.5 3 -3.5
v -0.5 0 2.5
v -0.5 0 1.5
v -0.5 0 -4.5
v -0.5 0 -5.5
v -0.5 1 2.5
v -0.5 1 1.5
v -0.5 1 0.5
v -0.5 1 -4.5
v -0.5 2 1.5
v -0.5 2 0.5
v -0.5 2 -0.5
v -0.5 2 -1.5
v -0.5 2 -4.5
v -0.5 2 -5.5
v -0.5 3 -0.5
v -0.5 3 -1.5
v -0.5 3 -2.5
v -0.5 3 -3.5
v -0.5 4 -1.5
v -0.5 4 -2.5
v -0.5 4 -3.5
v 0.5 2 0.5
v 0.5 2 -0.5
v 0.5 2 -2.5
v 0.5 2 -3.5
v 0.5 2 -4.5
v 0.5 3 0.5
v 0.5 3 -0.5
v 0.5 3 -1.5
v 0.5 3 -2.5
v 0.5 3 -3.5
v 0.5 4 -0.5
v 0.5 4 -1.5
v 0.5 4 -2.5
v 0.5 4 -3.5
v 0.5 4 -4.5
v 0.5 5 -1.5
v 0.5 5 -2.5
v 0.5 5 -3.5
v 1.5 1 2.5
v 1.5 1 1.5
v 1.5 1 -4.5
v 1.5 1 -5.5
v 1.5 2 2.5
v 1.5 2 1.5
v 1.5 2 -4.5
v 1.5 2 -5.5
v -1.5 2 -0.5
v -1.5 2 -1.5
v -1.5 3 -0.5
v -1.5 3 -1.5
v -0.5 2 -2.5
v -0.5 2 -3.5
v -0.5 3 -2.5
v -0.5 3 -3.5
v 0.5 1 -4.5
v 0.5 1 -5.5
v 0.5 2 -4.5
v 0.5 2 -5.5
v 1.5 2 0.5
v 1.5 2 -0.5
v 1.5 3 0.5
v 1.5 3 -0.5
v 1.5 3 -1.5
v 1.5 3 -2.5
v 1.5 3 -3.5
v 1.5 3 -4.5
v 1.5 4 -0.5
v 1.5 4 -1.5
v 1.5 4 -2.5
v 1.5 4 -3.5
v 1.5 4 -4.5
v 1.5 5 -1.5
v 1.5 5 -2.5
v 1.5 5 -3.5
v 2.5 1 2.5
v 2.5 1 0.5
v 2.5 1 -0.5
v 2.5 1 -1.5
v 2.5 1 -2.5
v 2.5 1 -3.5
v 2.5 2 2.5
v 2.5 2 -0.5
v 2.5 2 -1.5
v 2.5 2 -2.5
v 2.5 2 -3.5
v 2.5 2 -4.5
v 2.5 3 -0.5
v 2.5 3 -1.5
v 2.5 3 -2.5
v 2.5 3 -3.5
v 2.5 3 -4.5
v 2.5 4 -2.5
v 2.5 4 -3.5
v 3.5 0 2.5
v 3.5 0 1.5
v 3.5 0 -4.5
v 3.5 0 -5.5
v 3.5 1 2.5
v 3.5 1 1.5
v 3.5 1 -1.5
v 3.5 1 -2.5
v 3.5 1 -3.5
v 3.5 1 -4.5
v 3.5 2 -1.5
v 3.5 2 -2.5
v 3.5 2 -3.5
v 3.5 2 -4.5
v 3.5 2 -5.5
v 3.5 3 -1.5
v 3.5 3 -2.5
v 4.5 0 1.5
v 4.5 0 0.5
v 4.5 0 -0.5
v 4.5 0 -1.5
v 4.5 0 -2.5
v 4.5 0 -4.5
v 4.5 1 1.5
v 4.5 1 0.5
v 4.5 1 -0.5
v 4.5 1 -1.5
v 4.5 1 -2.5
v 4.5 1 -4.5
v 5.5 0 -1.5
v 5.5 0 -2.5
v 5.5 1 -1.5
v 5.5 1 -2.5
v -0.5 0 2.5
v -0.5 1 2.5
v 1.5 1 2.5
v 1.5 2 2.5
v 2.5 1 2.5
v 2.5 2 2.5
v 3.5 0 2.5
v 3.5 1 2.5
v -1.5 0 1.5
v -1.5 1 1.5
v -0.5 0 1.5
v -0.5 1 1.5
v -0.5 2 1.5
v 0.5 1 1.5
v 0.5 2 1.5
v 1.5 1 1.5
v 1.5 2 1.5
v 3.5 0 1.5
v 3.5 1 1.5
v 4.5 0 1.5
v 4.5 1 1.5
v -2.5 0 0.5
v -2.5 1 0.5
v -2.5 2 0.5
v -1.5 0 0.5
v -1.5 1 0.5
v -0.5 1 0.5
v -0.5 2 0.5
v 0.5 2 0.5
v 0.5 3 0.5
v 1.5 2 0.5
v 1.5 3 0.5
v -3.5 0 -0.5
v -3.5 1 -0.5
v -2.5 0 -0.5
v -2.5 1 -0.5
v -2.5 2 -0.5
v -2.5 3 -0.5
v -1.5 2 -0.5
v -1.5 3 -0.5
v -0.5 2 -0.5
v -0.5 3 -0.5
v 0.5 2 -0.5
v 0.5 3 -0.5
v 0.5 4 -0.5
v 1.5 2 -0.5
v 1.5 3 -0.5
v 1.5 4 -0.5
v 2.5 2 -0.5
v 2.5 3 -0.5
v -1.5 2 -1.5
v -1.5 3 -1.5
v -0.5 2 -1.5
v -0.5 3 -1.5
v -0.5 4 -1.5
v 0.5 3 -1.5
v 0.5 4 -1.5
v 0.5 5 -1.5
v 1.5 4 -1.5
v 1.5 5 -1.5
v 2.5 1 -1.5
v 2.5 2 -1.5
v 2.5 3 -1.5
v 3.5 1 -1.5
v 3.5 2 -1.5
v 3.5 3 -1.5
v 4.5 0 -1.5
v 4.5 1 -1.5
v 5.5 0 -1.5
v 5.5 1 -1.5
v 1.5 3 -2.5
v 1.5 4 -2.5
v 2.5 3 -2.5
v 2.5 4 -2.5
v 2.5 1 -3.5
v 2.5 2 -3.5
v 3.5 1 -3.5
v 3.5 2 -3.5
v -3.5 0 -1.5
v -3.5 1 -1.5
v -2.5 0 -1.5
v -2.5 1 -1.5
v -2.5 2 -1.5
v -2.5 3 -1.5
v -1.5 2 -1.5
v -1.5 3 -1.5
v -0.5 2 -2.5
v -0.5 3 -2.5
v 0.5 2 -2.5
v 0.5 3 -2.5
v 2.5 1 -2.5
v 2.5 2 -2.5
v 2.5 3 -2.5
v 3.5 1 -2.5
v 3.5 2 -2.5
v 3.5 3 -2.5
v 4.5 0 -2.5
v 4.5 1 -2.5
v 5.5 0 -2.5
v 5.5 1 -2.5
v -2.5 0 -3.5
v -2.5 1 -3.5
v -2.5 2 -3.5
v -1.5 0 -3.5
v -1.5 1 -3.5
v -1.5 2 -3.5
v -1.5 3 -3.5
v -0.5 2 -3.5
v -0.5 3 -3.5
v -0.5 4 -3.5
v 0.5 3 -3.5
v 0.5 4 -3.5
v 0.5 5 -3.5
v 1.5 3 -3.5
v 1.5 4 -3.5
v 1.5 5 -3.5
v 2.5 3 -3.5
v 2.5 4 -3.5
v -1.5 0 -4.5
v -1.5 1 -4.5
v -1.5 2 -4.5
v -0.5 0 -4.5
v -0.5 1 -4.5
v -0.5 2 -4.5
v 0.5 1 -4.5
v 0.5 2 -4.5
v 0.5 4 -4.5
v 1.5 1 -4.5
v 1.5 2 -4.5
v 1.5 3 -4.5
v 1.5 4 -4.5
v 2.5 2 -4.5
v 2.5 3 -4.5
v 3.5 0 -4.5
v 3.5 1 -4.5
v 4.5 0 -4.5
v 4.5 1 -4.5
v -0.5 0 -5.5
v -0.5 2 -5.5
v 0.5 1 -5.5
v 0.5 2 -5.5
v 1.5 1 -5.5
v 1.5 2 -5.5
v 3.5 0 -5.5
v 3.5 2 -5.5
v -0.5 0 2.5
v 3.5 0 2.5
v -1.5 0 1.5
v -0.5 0 1.5
v 3.5 0 1.5
v 4.5 0 1.5
v -2.5 0 0.5
v -1.5 0 0.5
v -0.5 0 0.5
v 2.5 0 0.5
v 4.5 0 0.5
v -3.5 0 -0.5
v -2.5 0 -0.5
v -1.5 0 -0.5
v -0.5 0 -0.5
v 2.5 0 -0.5
v 4.5 0 -0.5
v -3.5 0 -1.5
v -2.5 0 -1.5
v 4.5 0 -1.5
v 5.5 0 -1.5
v 4.5 0 -2.5
v 5.5 0 -2.5
v -2.5 0 -3.5
v -1.5 0 -3.5
v -1.5 0 -4.5
v -0.5 0 -4.5
v 3.5 0 -4.5
v 4.5 0 -4.5
v -0.5 0 -5.5
v 3.5 0 -5.5
v -0.5 3 -2.5
v 0.5 3 -2.5
v -0.5 3 -3.5
v 0.5 3 -3.5
v -0.5 1 2.5
v 1.5 1 2.5
v 2.5 1 2.5
v 3.5 1 2.5
v -1.5 1 1.5
v -0.5 1 1.5
v 0.5 1 1.5
v 1.5 1 1.5
v 3.5 1 1.5
v 4.5 1 1.5
v -1.5 1 0.5
v -0.5 1 0.5
v 2.5 1 0.5
v 4.5 1 0.5
v -3.5 1 -0.5
v -2.5 1 -0.5
v 2.5 1 -0.5
v 4.5 1 -0.5
v -3.5 1 -1.5
v -2.5 1 -1.5
v 2.5 1 -1.5
v 3.5 1 -1.5
v 4.5 1 -1.5
v 5.5 1 -1.5
v 2.5 1 -2.5
v 3.5 1 -2.5
v 4.5 1 -2.5
v 5.5 1 -2.5
v 2.5 1 -3.5
v 3.5 1 -3.5
v 0.5 1 -4.5
v 1.5 1 -4.5
v 3.5 1 -4.5
v 4.5 1 -4.5
v 0.5 1 -5.5
v 1.5 1 -5.5
v 1.5 2 2.5
v 2.5 2 2.5
v -0.5 2 1.5
v 0.5 2 1.5
v 1.5 2 1.5
v -2.5 2 0.5
v -0.5 2 0.5
v 0.5 2 0.5
v 1.5 2 0.5
v -2.5 2 -0.5
v -1.5 2 -0.5
v -0.5 2 -0.5
v 0.5 2 -0.5
v 1.5 2 -0.5
v 2.5 2 -0.5
v -2.5 2 -1.5
v -1.5 2 -1.5
v -0.5 2 -1.5
v -1.5 2 -2.5
v -0.5 2 -2.5
v 0.5 2 -2.5
v -2.5 2 -3.5
v -1.5 2 -3.5
v -0.5 2 -3.5
v 0.5 2 -3.5
v 2.5 2 -3.5
v 3.5 2 -3.5
v -1.5 2 -4.5
v -0.5 2 -4.5
v 0.5 2 -4.5
v 1.5 2 -4.5
v 2.5 2 -4.5
v 3.5 2 -4.5
v -0.5 2 -5.5
v 0.5 2 -5.5
v 1.5 2 -5.5
v 3.5 2 -5.5
v 0.5 3 0.5
v 1.5 3 0.5
v -2.5 3 -0.5
v -1.5 3 -0.5
v -0.5 3 -0.5
v 0.5 3 -0.5
v 1.5 3 -0.5
v 2.5 3 -0.5
v -2.5 3 -1.5
v -1.5 3 -1.5
v -0.5 3 -1.5
v 0.5 3 -1.5
v 1.5 3 -1.5
v 2.5 3 -1.5
v 3.5 3 -1.5
v -1.5 3 -2.5
v -0.5 3 -2.5
v 1.5 3 -2.5
v 2.5 3 -2.5
v 3.5 3 -2.5
v -1.5 3 -3.5
v -0.5 3 -3.5
v 1.5 3 -3.5
v 2.5 3 -3.5
v 1.5 3 -4.5
v 2.5 3 -4.5
v 0.5 4 -0.5
v 1.5 4 -0.5
v -0.5 4 -1.5
v 0.5 4 -1.5
v 1.5 4 -1.5
v -0.5 4 -2.5
v 0.5 4 -2.5
v 1.5 4 -2.5
v 2.5 4 -2.5
v -0.5 4 -3.5
v 0.5 4 -3.5
v 1.5 4 -3.5
v 2.5 4 -3.5
v 0.5 4 -4.5
v 1.5 4 -4.5
v 0.5 5 -1.5
v 1.5 5 -1.5
v 0.5 5 -2.5
v 1.5 5 -2.5
v 0.5 5 -3.5
v 1.5 5 -3.5

# faces
f 3/1/1 2/1/1 1/1/1
f 4/1/1 2/1/1 3/1/1
f 9/1/1 6/1/1 5/1/1
f 10/1/1 6/1/1 9/1/1
f 11/1/1 8/1/1 7/1/1
f 12/1/1 8/1/1 11/1/1
f 13/2/1 10/2/1 9/2/1
f 14/1/1 11/1/1 10/1/1
f 14/2/1 10/2/1 13/2/1
f 15/2/1 12/2/1 11/2/1
f 15/1/1 11/1/1 14/1/1
f 16/2/1 12/2/1 15/2/1
f 17/1/1 15/1/1 14/1/1
f 18/1/1 15/1/1 17/1/1
f 23/1/1 20/1/1 19/1/1
f 24/1/1 20/1/1 23/1/1
f 25/1/1 22/1/1 21/1/1
f 26/1/1 22/1/1 25/1/1
f 29/2/1 26/2/1 25/2/1
f 30/2/1 26/2/1 29/2/1
f 31/1/1 28/1/1 27/1/1
f 32/2/1 29/2/1 28/2/1
f 32/1/1 28/1/1 31/1/1
f 33/2/1 29/2/1 32/2/1
f 38/1/1 35/1/1 34/1/1
f 39/1/1 35/1/1 38/1/1
f 41/2/1 37/2/1 36/2/1
f 42/2/1 40/2/1 39/2/1
f 43/2/1 40/2/1 42/2/1
f 46/2/1 37/2/1 41/2/1
f 47/2/1 37/2/1 46/2/1
f 48/1/1 45/1/1 44/1/1
f 49/1/1 45/1/1 48/1/1
f 52/1/1 50/1/1 49/1/1
f 53/2/1 51/2/1 50/2/1
f 53/1/1 50/1/1 52/1/1
f 54/2/1 51/2/1 53/2/1
f 60/1/1 56/1/1 55/1/1
f 61/1/1 56/1/1 60/1/1
f 63/1/1 58/1/1 57/1/1
f 64/2/1 59/2/1 58/2/1
f 64/1/1 58/1/1 63/1/1
f 65/1/1 62/1/1 61/1/1
f 66/1/1 62/1/1 65/1/1
f 68/2/1 59/2/1 64/2/1
f 69/2/1 59/2/1 68/2/1
f 70/1/1 67/1/1 66/1/1
f 71/2/1 68/2/1 67/2/1
f 71/1/1 67/1/1 70/1/1
f 72/2/1 68/2/1 71/2/1
f 77/1/1 74/1/1 73/1/1
f 78/1/1 74/1/1 77/1/1
f 79/2/1 76/2/1 75/2/1
f 80/2/1 76/2/1 79/2/1
f 81/1/2 82/1/2 83/1/2
f 83/1/2 82/1/2 84/1/2
f 85/2/2 86/2/2 87/2/2
f 87/2/2 86/2/2 88/2/2
f 89/2/2 90/2/2 91/2/2
f 91/2/2 90/2/2 92/2/2
f 93/1/2 94/1/2 95/1/2
f 95/1/2 94/1/2 96/1/2
f 96/1/2 97/1/2 101/1/2
f 97/2/2 98/2/2 102/2/2
f 101/1/2 97/1/2 102/1/2
f 102/2/2 98/2/2 103/2/2
f 99/2/2 100/2/2 104/2/2
f 104/2/2 100/2/2 105/2/2
f 102/1/2 103/1/2 106/1/2
f 103/2/2 104/2/2 107/2/2
f 106/1/2 103/1/2 107/1/2
f 107/2/2 104/2/2 108/2/2
f 109/1/2 110/1/2 115/1/2
f 110/1/2 111/1/2 115/1/2
f 111/1/2 112/1/2 115/1/2
f 115/1/2 112/1/2 116/1/2
f 116/1/2 112/1/2 117/1/2
f 113/1/2 114/1/2 118/1/2
f 118/1/2 114/1/2 119/1/2
f 116/2/2 117/2/2 121/2/2
f 121/2/2 117/2/2 122/2/2
f 118/1/2 119/1/2 123/1/2
f 119/2/2 120/2/2 124/2/2
f 123/1/2 119/1/2 124/1/2
f 124/2/2 120/2/2 125/2/2
f 123/2/2 124/2/2 126/2/2
f 126/2/2 124/2/2 127/2/2
f 128/1/2 129/1/2 132/1/2
f 132/1/2 129/1/2 133/1/2
f 130/2/2 131/2/2 137/2/2
f 134/1/2 135/1/2 138/1/2
f 138/1/2 135/1/2 139/1/2
f 136/1/2 137/1/2 140/1/2
f 137/2/2 131/2/2 141/2/2
f 140/1/2 137/1/2 141/1/2
f 141/2/2 131/2/2 142/2/2
f 138/2/2 139/2/2 143/2/2
f 143/2/2 139/2/2 144/2/2
f 145/1/2 146/1/2 151/1/2
f 146/2/2 147/2/2 152/2/2
f 151/1/2 146/1/2 152/1/2
f 147/1/2 148/1/2 153/1/2
f 152/2/2 147/2/2 153/2/2
f 153/1/2 148/1/2 154/1/2
f 149/1/2 150/1/2 155/1/2
f 155/1/2 150/1/2 156/1/2
f 157/1/2 158/1/2 159/1/2
f 159/1/2 158/1/2 160/1/2
f 163/1/3 162/1/3 161/1/3
f 165/1/3 163/1/3 161/1/3
f 165/1/3 164/1/3 163/1/3
f 166/1/3 164/1/3 165/1/3
f 167/1/3 165/1/3 161/1/3
f 168/1/3 165/1/3 167/1/3
f 171/1/3 170/1/3 169/1/3
f 172/1/3 170/1/3 171/1/3
f 174/2/3 173/2/3 172/2/3
f 175/2/3 173/2/3 174/2/3
f 176/1/3 175/1/3 174/1/3
f 177/1/3 175/1/3 176/1/3
f 180/1/3 179/1/3 178/1/3
f 181/1/3 179/1/3 180/1/3
f 185/1/3 183/1/3 182/1/3
f 186/2/3 184/2/3 183/2/3
f 186/1/3 183/1/3 185/1/3
f 187/2/3 184/2/3 186/2/3
f 188/2/3 184/2/3 187/2/3
f 191/1/3 190/1/3 189/1/3
f 192/1/3 190/1/3 191/1/3
f 195/1/3 194/1/3 193/1/3
f 196/1/3 194/1/3 195/1/3
f 199/1/3 198/1/3 197/1/3
f 200/1/3 198/1/3 199/1/3
f 203/1/3 202/1/3 201/1/3
f 204/1/3 202/1/3 203/1/3
f 207/1/3 205/1/3 204/1/3
f 208/1/3 205/1/3 207/1/3
f 209/2/3 207/2/3 206/2/3
f 210/2/3 207/2/3 209/2/3
f 213/1/3 212/1/3 211/1/3
f 214/1/3 212/1/3 213/1/3
f 216/1/3 215/1/3 214/1/3
f 217/1/3 215/1/3 216/1/3
f 219/1/3 218/1/3 217/1/3
f 220/1/3 218/1/3 219/1/3
f 224/1/3 222/1/3 221/1/3
f 225/2/3 223/2/3 222/2/3
f 225/1/3 222/1/3 224/1/3
f 226/2/3 223/2/3 225/2/3
f 229/1/3 228/1/3 227/1/3
f 230/1/3 228/1/3 229/1/3
f 233/2/3 232/2/3 231/2/3
f 234/2/3 232/2/3 233/2/3
f 237/1/3 236/1/3 235/1/3
f 238/1/3 236/1/3 237/1/3
f 239/1/4 240/1/4 241/1/4
f 241/1/4 240/1/4 242/1/4
f 243/1/4 244/1/4 245/1/4
f 245/1/4 244/1/4 246/1/4
f 247/2/4 248/2/4 249/2/4
f 249/2/4 248/2/4 250/2/4
f 251/1/4 252/1/4 254/1/4
f 252/2/4 253/2/4 255/2/4
f 254/1/4 252/1/4 255/1/4
f 255/2/4 253/2/4 256/2/4
f 257/1/4 258/1/4 259/1/4
f 259/1/4 258/1/4 260/1/4
f 261/1/4 262/1/4 264/1/4
f 262/2/4 263/2/4 265/2/4
f 264/1/4 262/1/4 265/1/4
f 265/2/4 263/2/4 266/2/4
f 266/2/4 267/2/4 268/2/4
f 268/2/4 267/2/4 269/2/4
f 269/2/4 270/2/4 271/2/4
f 271/2/4 270/2/4 272/2/4
f 272/2/4 273/2/4 275/2/4
f 275/2/4 273/2/4 276/2/4
f 274/2/4 275/2/4 277/2/4
f 277/2/4 275/2/4 278/2/4
f 279/1/4 280/1/4 282/1/4
f 280/2/4 281/2/4 283/2/4
f 282/1/4 280/1/4 283/1/4
f 283/2/4 281/2/4 284/2/4
f 285/1/4 286/1/4 288/1/4
f 286/2/4 287/2/4 289/2/4
f 288/1/4 286/1/4 289/1/4
f 289/2/4 287/2/4 290/2/4
f 290/2/4 287/2/4 291/2/4
f 289/2/4 290/2/4 292/2/4
f 292/2/4 290/2/4 293/2/4
f 294/1/4 295/1/4 296/1/4
f 296/1/4 295/1/4 297/1/4
f 298/2/4 299/2/4 300/2/4
f 300/2/4 299/2/4 301/2/4
f 298/2/4 300/2/4 302/2/4
f 298/2/4 302/2/4 304/2/4
f 302/2/4 303/2/4 304/2/4
f 304/2/4 303/2/4 305/2/4
f 309/1/5 307/1/5 306/1/5
f 310/1/5 307/1/5 309/1/5
f 313/1/5 309/1/5 308/1/5
f 313/1/5 311/1/5 310/1/5
f 313/1/5 310/1/5 309/1/5
f 314/1/5 311/1/5 313/1/5
f 315/1/5 311/1/5 314/1/5
f 316/1/5 311/1/5 315/1/5
f 318/1/5 313/1/5 312/1/5
f 319/2/5 314/2/5 313/2/5
f 319/1/5 313/1/5 318/1/5
f 320/1/5 315/1/5 314/1/5
f 320/2/5 314/2/5 319/2/5
f 321/2/5 316/2/5 315/2/5
f 321/1/5 315/1/5 320/1/5
f 322/2/5 316/2/5 321/2/5
f 323/1/5 318/1/5 317/1/5
f 323/1/5 319/1/5 318/1/5
f 323/1/5 322/1/5 321/1/5
f 323/1/5 321/1/5 320/1/5
f 323/1/5 320/1/5 319/1/5
f 324/1/5 322/1/5 323/1/5
f 325/1/5 322/1/5 324/1/5
f 327/1/5 325/1/5 324/1/5
f 327/1/5 326/1/5 325/1/5
f 328/1/5 326/1/5 327/1/5
f 329/1/5 327/1/5 324/1/5
f 330/1/5 327/1/5 329/1/5
f 331/1/5 327/1/5 330/1/5
f 332/1/5 327/1/5 331/1/5
f 333/1/5 327/1/5 332/1/5
f 334/1/5 327/1/5 333/1/5
f 335/2/5 333/2/5 332/2/5
f 336/2/5 333/2/5 335/2/5
f 339/2/5 338/2/5 337/2/5
f 340/2/5 338/2/5 339/2/5
f 341/1/6 342/1/6 346/1/6
f 346/1/6 342/1/6 347/1/6
f 347/1/6 342/1/6 348/1/6
f 343/1/6 344/1/6 349/1/6
f 345/1/6 346/1/6 351/1/6
f 351/1/6 346/1/6 352/1/6
f 349/1/6 350/1/6 353/1/6
f 343/1/6 349/1/6 353/1/6
f 353/1/6 350/1/6 354/1/6
f 353/2/6 354/2/6 357/2/6
f 357/2/6 354/2/6 358/2/6
f 355/1/6 356/1/6 359/1/6
f 359/1/6 356/1/6 360/1/6
f 357/1/6 358/1/6 361/1/6
f 361/1/6 358/1/6 362/1/6
f 362/1/6 358/1/6 363/1/6
f 362/1/6 363/1/6 366/1/6
f 363/1/6 364/1/6 366/1/6
f 366/1/6 364/1/6 367/1/6
f 367/1/6 364/1/6 368/1/6
f 365/1/6 366/1/6 369/1/6
f 366/1/6 367/1/6 369/1/6
f 369/1/6 367/1/6 370/1/6
f 370/1/6 367/1/6 373/1/6
f 373/1/6 367/1/6 374/1/6
f 371/2/6 372/2/6 375/2/6
f 375/2/6 372/2/6 376/2/6
f 377/1/6 378/1/6 381/1/6
f 379/2/6 380/2/6 383/2/6
f 380/1/6 381/1/6 384/1/6
f 383/2/6 380/2/6 384/2/6
f 381/1/6 378/1/6 385/1/6
f 384/1/6 381/1/6 385/1/6
f 382/2/6 383/2/6 386/2/6
f 386/2/6 383/2/6 387/2/6
f 383/1/6 384/1/6 388/1/6
f 387/2/6 383/2/6 388/2/6
f 388/1/6 384/1/6 389/1/6
f 385/1/6 378/1/6 390/1/6
f 390/1/6 378/1/6 391/1/6
f 387/1/6 388/1/6 393/1/6
f 393/1/6 388/1/6 394/1/6
f 392/2/6 393/2/6 395/2/6
f 392/2/6 395/2/6 398/2/6
f 398/2/6 395/2/6 399/2/6
f 396/1/6 397/1/6 400/1/6
f 400/1/6 397/1/6 401/1/6
f 399/2/6 400/2/6 404/2/6
f 400/1/6 401/1/6 405/1/6
f 404/2/6 400/2/6 405/2/6
f 405/1/6 401/1/6 406/1/6
f 402/1/6 403/1/6 408/1/6
f 408/1/6 403/1/6 409/1/6
f 405/2/6 406/2/6 410/2/6
f 410/2/6 406/2/6 411/2/6
f 408/2/6 409/2/6 412/2/6
f 407/2/6 408/2/6 412/2/6
f 412/2/6 409/2/6 413/2/6
f 414/1/6 415/1/6 419/1/6
f 419/1/6 415/1/6 420/1/6
f 416/1/6 417/1/6 422/1/6
f 422/1/6 417/1/6 423/1/6
f 418/1/6 419/1/6 424/1/6
f 424/1/6 419/1/6 425/1/6
f 420/2/6 421/2/6 426/2/6
f 426/2/6 421/2/6 427/2/6
f 423/1/6 424/1/6 429/1/6
f 429/1/6 424/1/6 430/1/6
f 427/2/6 428/2/6 431/2/6
f 426/2/6 427/2/6 431/2/6
f 431/2/6 428/2/6 432/2/6
f 432/2/6 428/2/6 433/2/6
f 429/2/6 430/2/6 434/2/6
f 434/2/6 430/2/6 435/2/6
f 436/2/6 437/2/6 438/2/6
f 438/2/6 437/2/6 439/2/6
f 440/1/6 441/1/6 443/1/6
f 443/1/6 441/1/6 444/1/6
f 442/1/6 443/1/6 445/1/6
f 445/1/6 443/1/6 446/1/6
f 445/2/6 446/2/6 449/2/6
f 449/2/6 446/2/6 450/2/6
f 447/2/6 448/2/6 451/2/6
f 451/2/6 448/2/6 452/2/6
f 450/2/6 451/2/6 453/2/6
f 453/2/6 451/2/6 454/2/6
f 455/1/6 456/1/6 457/1/6
f 457/1/6 456/1/6 458/1/6
f 457/2/6 458/2/6 459/2/6
f 459/2/6 458/2/6 460/2/6
