# MagicaVoxel @ Ephtracy

# material
mtllib Flower1.mtl
usemtl palette

# normals
vn -1 0 0
vn 1 0 0
vn 0 0 1
vn 0 0 -1
vn 0 -1 0
vn 0 1 0

# texcoords
vt 0.400391 0.5
vt 0.830078 0.5

# verts
v -5 0 -0
v -5 0 -1
v -5 1 -0
v -5 1 -1
v -5 7 -0
v -5 7 -1
v -5 8 -0
v -5 8 -1
v -5 9 -0
v -5 9 -1
v -5 10 -0
v -5 10 -1
v -4 0 2
v -4 0 -0
v -4 1 2
v -4 1 1
v -4 1 -0
v -4 2 1
v -4 2 -0
v -4 6 -0
v -4 6 -1
v -4 7 -0
v -4 7 -1
v -4 8 -0
v -4 8 -1
v -4 9 1
v -4 9 -0
v -4 9 -1
v -4 9 -2
v -4 10 1
v -4 10 -0
v -4 10 -1
v -4 10 -2
v -4 11 -0
v -4 11 -1
v -3 0 3
v -3 0 2
v -3 0 -1
v -3 0 -2
v -3 1 3
v -3 1 2
v -3 1 1
v -3 1 -0
v -3 1 -1
v -3 2 2
v -3 2 1
v -3 2 -0
v -3 2 -1
v -3 2 -2
v -3 3 1
v -3 3 -0
v -3 6 -0
v -3 6 -1
v -3 7 -0
v -3 7 -1
v -3 8 1
v -3 8 -0
v -3 8 -1
v -3 8 -2
v -3 9 2
v -3 9 1
v -3 9 -0
v -3 9 -1
v -3 9 -2
v -3 9 -3
v -3 10 2
v -3 10 1
v -3 10 -0
v -3 10 -1
v -3 10 -2
v -3 10 -3
v -3 11 1
v -3 11 -0
v -3 11 -1
v -3 11 -2
v -3 12 -0
v -3 12 -1
v -2 0 -2
v -2 0 -3
v -2 1 -2
v -2 1 -3
v -4 7 -0
v -4 7 -1
v -4 8 -0
v -4 8 -1
v -2 0 3
v -2 0 1
v -2 1 3
v -2 1 2
v -2 1 -0
v -2 1 -2
v -2 2 2
v -2 2 1
v -2 2 -0
v -2 2 -1
v -2 2 -2
v -2 3 1
v -2 3 -0
v -2 6 -0
v -2 6 -1
v -2 7 -0
v -2 7 -1
v -2 8 1
v -2 8 -0
v -2 8 -1
v -2 8 -2
v -2 9 2
v -2 9 1
v -2 9 -0
v -2 9 -1
v -2 9 -2
v -2 9 -3
v -2 10 2
v -2 10 1
v -2 10 -0
v -2 10 -1
v -2 10 -2
v -2 10 -3
v -2 11 1
v -2 11 -0
v -2 11 -1
v -2 11 -2
v -2 12 -0
v -2 12 -1
v -1 0 -1
v -1 0 -3
v -1 1 1
v -1 1 -0
v -1 1 -1
v -1 1 -3
v -1 2 1
v -1 2 -0
v -1 8 -0
v -1 8 -1
v -1 9 1
v -1 9 -0
v -1 9 -1
v -1 9 -2
v -1 10 1
v -1 10 -0
v -1 10 -1
v -1 10 -2
v -1 11 -0
v -1 11 -1
v 0 0 -0
v 0 0 -1
v 0 1 -0
v 0 1 -1
v 0 6 -0
v 0 6 -1
v 0 7 -0
v 0 7 -1
v 0 9 -0
v 0 9 -1
v 0 10 -0
v 0 10 -1
v 1 0 1
v 1 0 -0
v 1 1 1
v 1 1 -0
v -3 0 3
v -3 1 3
v -2 0 3
v -2 1 3
v -4 0 2
v -4 1 2
v -3 0 2
v -3 1 2
v -3 2 2
v -3 9 2
v -3 10 2
v -2 1 2
v -2 2 2
v -2 9 2
v -2 10 2
v -4 1 1
v -4 2 1
v -4 9 1
v -4 10 1
v -3 1 1
v -3 2 1
v -3 3 1
v -3 8 1
v -3 9 1
v -3 10 1
v -3 11 1
v -2 0 1
v -2 2 1
v -2 3 1
v -2 8 1
v -2 9 1
v -2 10 1
v -2 11 1
v -1 1 1
v -1 2 1
v -1 9 1
v -1 10 1
v 1 0 1
v 1 1 1
v -5 0 -0
v -5 1 -0
v -5 7 -0
v -5 8 -0
v -5 9 -0
v -5 10 -0
v -4 0 -0
v -4 1 -0
v -4 6 -0
v -4 7 -0
v -4 8 -0
v -4 9 -0
v -4 10 -0
v -4 11 -0
v -3 3 -0
v -3 6 -0
v -3 7 -0
v -3 8 -0
v -3 9 -0
v -3 10 -0
v -3 11 -0
v -3 12 -0
v -2 3 -0
v -2 6 -0
v -2 7 -0
v -2 8 -0
v -2 9 -0
v -2 10 -0
v -2 11 -0
v -2 12 -0
v -1 8 -0
v -1 9 -0
v -1 10 -0
v -1 11 -0
v 0 6 -0
v 0 7 -0
v 0 9 -0
v 0 10 -0
v -4 1 -0
v -4 2 -0
v -3 1 -0
v -3 2 -0
v -2 1 -0
v -2 2 -0
v -1 1 -0
v -1 2 -0
v 0 0 -0
v 0 1 -0
v 1 0 -0
v 1 1 -0
v -5 0 -1
v -5 1 -1
v -5 7 -1
v -5 8 -1
v -5 9 -1
v -5 10 -1
v -4 6 -1
v -4 7 -1
v -4 8 -1
v -4 9 -1
v -4 10 -1
v -4 11 -1
v -3 0 -1
v -3 1 -1
v -3 2 -1
v -3 6 -1
v -3 7 -1
v -3 8 -1
v -3 9 -1
v -3 10 -1
v -3 11 -1
v -3 12 -1
v -2 2 -1
v -2 6 -1
v -2 7 -1
v -2 8 -1
v -2 9 -1
v -2 10 -1
v -2 11 -1
v -2 12 -1
v -1 0 -1
v -1 1 -1
v -1 8 -1
v -1 9 -1
v -1 10 -1
v -1 11 -1
v 0 0 -1
v 0 1 -1
v 0 6 -1
v 0 7 -1
v 0 9 -1
v 0 10 -1
v -4 9 -2
v -4 10 -2
v -3 0 -2
v -3 2 -2
v -3 8 -2
v -3 9 -2
v -3 10 -2
v -3 11 -2
v -2 0 -2
v -2 1 -2
v -2 2 -2
v -2 8 -2
v -2 9 -2
v -2 10 -2
v -2 11 -2
v -1 9 -2
v -1 10 -2
v -3 9 -3
v -3 10 -3
v -2 0 -3
v -2 1 -3
v -2 9 -3
v -2 10 -3
v -1 0 -3
v -1 1 -3
v -3 0 3
v -2 0 3
v -4 0 2
v -3 0 2
v -2 0 1
v 1 0 1
v -5 0 -0
v -4 0 -0
v 0 0 -0
v 1 0 -0
v -5 0 -1
v -3 0 -1
v -1 0 -1
v 0 0 -1
v -3 0 -2
v -2 0 -2
v -2 0 -3
v -1 0 -3
v -4 6 -0
v -3 6 -0
v -2 6 -0
v 0 6 -0
v -4 6 -1
v -3 6 -1
v -2 6 -1
v 0 6 -1
v -5 7 -0
v -4 7 -0
v -5 7 -1
v -4 7 -1
v -3 8 1
v -2 8 1
v -4 8 -0
v -3 8 -0
v -2 8 -0
v -1 8 -0
v -4 8 -1
v -3 8 -1
v -2 8 -1
v -1 8 -1
v -3 8 -2
v -2 8 -2
v -3 9 2
v -2 9 2
v -4 9 1
v -3 9 1
v -2 9 1
v -1 9 1
v -5 9 -0
v -4 9 -0
v -3 9 -0
v -2 9 -0
v -1 9 -0
v 0 9 -0
v -5 9 -1
v -4 9 -1
v -3 9 -1
v -2 9 -1
v -1 9 -1
v 0 9 -1
v -4 9 -2
v -3 9 -2
v -2 9 -2
v -1 9 -2
v -3 9 -3
v -2 9 -3
v -3 1 3
v -2 1 3
v -4 1 2
v -3 1 2
v -2 1 2
v -4 1 1
v -3 1 1
v -1 1 1
v 1 1 1
v -5 1 -0
v -4 1 -0
v -3 1 -0
v -2 1 -0
v -1 1 -0
v 0 1 -0
v 1 1 -0
v -5 1 -1
v -3 1 -1
v -1 1 -1
v 0 1 -1
v -2 1 -2
v -2 1 -3
v -1 1 -3
v -3 2 2
v -2 2 2
v -4 2 1
v -3 2 1
v -2 2 1
v -1 2 1
v -4 2 -0
v -3 2 -0
v -2 2 -0
v -1 2 -0
v -3 2 -1
v -2 2 -1
v -3 2 -2
v -2 2 -2
v -3 3 1
v -2 3 1
v -3 3 -0
v -2 3 -0
v -4 7 -0
v -3 7 -0
v -2 7 -0
v 0 7 -0
v -4 7 -1
v -3 7 -1
v -2 7 -1
v 0 7 -1
v -5 8 -0
v -4 8 -0
v -5 8 -1
v -4 8 -1
v -3 10 2
v -2 10 2
v -4 10 1
v -3 10 1
v -2 10 1
v -1 10 1
v -5 10 -0
v -4 10 -0
v -3 10 -0
v -2 10 -0
v -1 10 -0
v 0 10 -0
v -5 10 -1
v -4 10 -1
v -3 10 -1
v -2 10 -1
v -1 10 -1
v 0 10 -1
v -4 10 -2
v -3 10 -2
v -2 10 -2
v -1 10 -2
v -3 10 -3
v -2 10 -3
v -3 11 1
v -2 11 1
v -4 11 -0
v -3 11 -0
v -2 11 -0
v -1 11 -0
v -4 11 -1
v -3 11 -1
v -2 11 -1
v -1 11 -1
v -3 11 -2
v -2 11 -2
v -3 12 -0
v -2 12 -0
v -3 12 -1
v -2 12 -1

# faces
f 3/2/1 2/2/1 1/2/1
f 4/2/1 2/2/1 3/2/1
f 7/2/1 6/2/1 5/2/1
f 8/2/1 6/2/1 7/2/1
f 11/1/1 10/1/1 9/1/1
f 12/1/1 10/1/1 11/1/1
f 15/2/1 14/2/1 13/2/1
f 16/2/1 14/2/1 15/2/1
f 17/2/1 14/2/1 16/2/1
f 18/2/1 17/2/1 16/2/1
f 19/2/1 17/2/1 18/2/1
f 22/2/1 21/2/1 20/2/1
f 23/2/1 21/2/1 22/2/1
f 27/1/1 25/1/1 24/1/1
f 28/1/1 25/1/1 27/1/1
f 30/1/1 27/1/1 26/1/1
f 31/1/1 27/1/1 30/1/1
f 32/1/1 29/1/1 28/1/1
f 33/1/1 29/1/1 32/1/1
f 34/1/1 32/1/1 31/1/1
f 35/1/1 32/1/1 34/1/1
f 40/2/1 37/2/1 36/2/1
f 41/2/1 37/2/1 40/2/1
f 44/2/1 39/2/1 38/2/1
f 45/2/1 42/2/1 41/2/1
f 46/2/1 42/2/1 45/2/1
f 47/2/1 44/2/1 43/2/1
f 48/2/1 39/2/1 44/2/1
f 48/2/1 44/2/1 47/2/1
f 49/2/1 39/2/1 48/2/1
f 50/2/1 47/2/1 46/2/1
f 50/2/1 48/2/1 47/2/1
f 51/2/1 48/2/1 50/2/1
f 52/2/1 48/2/1 51/2/1
f 53/2/1 48/2/1 52/2/1
f 57/2/1 55/2/1 54/2/1
f 58/2/1 55/2/1 57/2/1
f 61/1/1 57/1/1 56/1/1
f 62/1/1 57/1/1 61/1/1
f 63/1/1 59/1/1 58/1/1
f 64/1/1 59/1/1 63/1/1
f 66/1/1 61/1/1 60/1/1
f 67/1/1 61/1/1 66/1/1
f 70/1/1 65/1/1 64/1/1
f 71/1/1 65/1/1 70/1/1
f 72/1/1 68/1/1 67/1/1
f 73/1/1 68/1/1 72/1/1
f 74/1/1 70/1/1 69/1/1
f 75/1/1 70/1/1 74/1/1
f 76/1/1 74/1/1 73/1/1
f 77/1/1 74/1/1 76/1/1
f 80/2/1 79/2/1 78/2/1
f 81/2/1 79/2/1 80/2/1
f 82/2/2 83/2/2 84/2/2
f 84/2/2 83/2/2 85/2/2
f 86/2/2 87/2/2 88/2/2
f 88/2/2 87/2/2 89/2/2
f 89/2/2 87/2/2 92/2/2
f 92/2/2 87/2/2 93/2/2
f 90/2/2 91/2/2 94/2/2
f 94/2/2 91/2/2 95/2/2
f 95/2/2 91/2/2 96/2/2
f 93/2/2 94/2/2 97/2/2
f 94/2/2 95/2/2 97/2/2
f 97/2/2 95/2/2 98/2/2
f 98/2/2 95/2/2 99/2/2
f 99/2/2 95/2/2 100/2/2
f 101/2/2 102/2/2 104/2/2
f 104/2/2 102/2/2 105/2/2
f 103/1/2 104/1/2 108/1/2
f 108/1/2 104/1/2 109/1/2
f 105/1/2 106/1/2 110/1/2
f 110/1/2 106/1/2 111/1/2
f 107/1/2 108/1/2 113/1/2
f 113/1/2 108/1/2 114/1/2
f 111/1/2 112/1/2 117/1/2
f 117/1/2 112/1/2 118/1/2
f 114/1/2 115/1/2 119/1/2
f 119/1/2 115/1/2 120/1/2
f 116/1/2 117/1/2 121/1/2
f 121/1/2 117/1/2 122/1/2
f 120/1/2 121/1/2 123/1/2
f 123/1/2 121/1/2 124/1/2
f 125/2/2 126/2/2 129/2/2
f 129/2/2 126/2/2 130/2/2
f 127/2/2 128/2/2 131/2/2
f 131/2/2 128/2/2 132/2/2
f 133/1/2 134/1/2 136/1/2
f 136/1/2 134/1/2 137/1/2
f 135/1/2 136/1/2 139/1/2
f 139/1/2 136/1/2 140/1/2
f 137/1/2 138/1/2 141/1/2
f 141/1/2 138/1/2 142/1/2
f 140/1/2 141/1/2 143/1/2
f 143/1/2 141/1/2 144/1/2
f 145/2/2 146/2/2 147/2/2
f 147/2/2 146/2/2 148/2/2
f 149/2/2 150/2/2 151/2/2
f 151/2/2 150/2/2 152/2/2
f 153/1/2 154/1/2 155/1/2
f 155/1/2 154/1/2 156/1/2
f 157/2/2 158/2/2 159/2/2
f 159/2/2 158/2/2 160/2/2
f 163/2/3 162/2/3 161/2/3
f 164/2/3 162/2/3 163/2/3
f 167/2/3 166/2/3 165/2/3
f 168/2/3 166/2/3 167/2/3
f 172/2/3 169/2/3 168/2/3
f 173/2/3 169/2/3 172/2/3
f 174/1/3 171/1/3 170/1/3
f 175/1/3 171/1/3 174/1/3
f 180/2/3 177/2/3 176/2/3
f 181/2/3 177/2/3 180/2/3
f 184/1/3 179/1/3 178/1/3
f 185/1/3 179/1/3 184/1/3
f 188/2/3 182/2/3 181/2/3
f 189/2/3 182/2/3 188/2/3
f 190/1/3 184/1/3 183/1/3
f 191/1/3 184/1/3 190/1/3
f 192/1/3 186/1/3 185/1/3
f 193/1/3 186/1/3 192/1/3
f 194/2/3 188/2/3 187/2/3
f 195/2/3 188/2/3 194/2/3
f 196/1/3 192/1/3 191/1/3
f 197/1/3 192/1/3 196/1/3
f 198/2/3 194/2/3 187/2/3
f 199/2/3 194/2/3 198/2/3
f 206/2/3 201/2/3 200/2/3
f 207/2/3 201/2/3 206/2/3
f 209/2/3 203/2/3 202/2/3
f 210/2/3 203/2/3 209/2/3
f 211/1/3 205/1/3 204/1/3
f 212/1/3 205/1/3 211/1/3
f 215/2/3 209/2/3 208/2/3
f 216/2/3 209/2/3 215/2/3
f 217/1/3 211/1/3 210/1/3
f 218/1/3 211/1/3 217/1/3
f 219/1/3 213/1/3 212/1/3
f 220/1/3 213/1/3 219/1/3
f 222/2/3 216/2/3 215/2/3
f 222/2/3 215/2/3 214/2/3
f 222/2/3 217/2/3 216/2/3
f 223/2/3 217/2/3 222/2/3
f 224/2/3 217/2/3 223/2/3
f 225/2/3 217/2/3 224/2/3
f 228/1/3 221/1/3 220/1/3
f 229/1/3 221/1/3 228/1/3
f 230/1/3 226/1/3 225/1/3
f 231/1/3 226/1/3 230/1/3
f 232/1/3 228/1/3 227/1/3
f 233/1/3 228/1/3 232/1/3
f 234/2/3 224/2/3 223/2/3
f 235/2/3 224/2/3 234/2/3
f 236/1/3 232/1/3 231/1/3
f 237/1/3 232/1/3 236/1/3
f 238/2/4 239/2/4 240/2/4
f 240/2/4 239/2/4 241/2/4
f 242/2/4 243/2/4 244/2/4
f 244/2/4 243/2/4 245/2/4
f 246/2/4 247/2/4 248/2/4
f 248/2/4 247/2/4 249/2/4
f 252/2/4 253/2/4 257/2/4
f 257/2/4 253/2/4 258/2/4
f 254/1/4 255/1/4 259/1/4
f 259/1/4 255/1/4 260/1/4
f 250/2/4 251/2/4 262/2/4
f 262/2/4 251/2/4 263/2/4
f 256/2/4 257/2/4 265/2/4
f 265/2/4 257/2/4 266/2/4
f 258/1/4 259/1/4 267/1/4
f 267/1/4 259/1/4 268/1/4
f 260/1/4 261/1/4 269/1/4
f 269/1/4 261/1/4 270/1/4
f 265/2/4 266/2/4 272/2/4
f 266/2/4 267/2/4 272/2/4
f 264/2/4 265/2/4 272/2/4
f 272/2/4 267/2/4 273/2/4
f 273/2/4 267/2/4 274/2/4
f 274/2/4 267/2/4 275/2/4
f 270/1/4 271/1/4 278/1/4
f 278/1/4 271/1/4 279/1/4
f 275/1/4 276/1/4 282/1/4
f 282/1/4 276/1/4 283/1/4
f 277/1/4 278/1/4 284/1/4
f 284/1/4 278/1/4 285/1/4
f 280/2/4 281/2/4 286/2/4
f 286/2/4 281/2/4 287/2/4
f 273/2/4 274/2/4 288/2/4
f 288/2/4 274/2/4 289/2/4
f 283/1/4 284/1/4 290/1/4
f 290/1/4 284/1/4 291/1/4
f 292/1/4 293/1/4 297/1/4
f 297/1/4 293/1/4 298/1/4
f 294/2/4 295/2/4 300/2/4
f 300/2/4 295/2/4 301/2/4
f 301/2/4 295/2/4 302/2/4
f 296/1/4 297/1/4 303/1/4
f 303/1/4 297/1/4 304/1/4
f 298/1/4 299/1/4 305/1/4
f 305/1/4 299/1/4 306/1/4
f 304/1/4 305/1/4 307/1/4
f 307/1/4 305/1/4 308/1/4
f 309/1/4 310/1/4 313/1/4
f 313/1/4 310/1/4 314/1/4
f 311/2/4 312/2/4 315/2/4
f 315/2/4 312/2/4 316/2/4
f 320/2/5 318/2/5 317/2/5
f 321/2/5 318/2/5 320/2/5
f 321/2/5 320/2/5 319/2/5
f 324/2/5 321/2/5 319/2/5
f 324/2/5 322/2/5 321/2/5
f 325/2/5 322/2/5 324/2/5
f 326/2/5 322/2/5 325/2/5
f 327/2/5 324/2/5 323/2/5
f 327/2/5 325/2/5 324/2/5
f 328/2/5 325/2/5 327/2/5
f 329/2/5 325/2/5 328/2/5
f 330/2/5 325/2/5 329/2/5
f 331/2/5 329/2/5 328/2/5
f 332/2/5 329/2/5 331/2/5
f 333/2/5 329/2/5 332/2/5
f 334/2/5 329/2/5 333/2/5
f 339/2/5 336/2/5 335/2/5
f 340/2/5 336/2/5 339/2/5
f 341/2/5 338/2/5 337/2/5
f 342/2/5 338/2/5 341/2/5
f 345/2/5 344/2/5 343/2/5
f 346/2/5 344/2/5 345/2/5
f 350/1/5 348/1/5 347/1/5
f 351/1/5 348/1/5 350/1/5
f 353/1/5 350/1/5 349/1/5
f 354/1/5 350/1/5 353/1/5
f 355/1/5 352/1/5 351/1/5
f 356/1/5 352/1/5 355/1/5
f 357/1/5 355/1/5 354/1/5
f 358/1/5 355/1/5 357/1/5
f 362/1/5 360/1/5 359/1/5
f 363/1/5 360/1/5 362/1/5
f 366/1/5 362/1/5 361/1/5
f 367/1/5 362/1/5 366/1/5
f 368/1/5 364/1/5 363/1/5
f 369/1/5 364/1/5 368/1/5
f 371/1/5 366/1/5 365/1/5
f 372/1/5 366/1/5 371/1/5
f 375/1/5 370/1/5 369/1/5
f 376/1/5 370/1/5 375/1/5
f 377/1/5 373/1/5 372/1/5
f 378/1/5 373/1/5 377/1/5
f 379/1/5 375/1/5 374/1/5
f 380/1/5 375/1/5 379/1/5
f 381/1/5 379/1/5 378/1/5
f 382/1/5 379/1/5 381/1/5
f 383/2/6 384/2/6 386/2/6
f 386/2/6 384/2/6 387/2/6
f 385/2/6 386/2/6 388/2/6
f 388/2/6 386/2/6 389/2/6
f 390/2/6 391/2/6 396/2/6
f 396/2/6 391/2/6 397/2/6
f 397/2/6 391/2/6 398/2/6
f 393/2/6 394/2/6 399/2/6
f 392/2/6 393/2/6 399/2/6
f 399/2/6 394/2/6 400/2/6
f 396/2/6 397/2/6 401/2/6
f 395/2/6 396/2/6 401/2/6
f 401/2/6 397/2/6 402/2/6
f 395/2/6 401/2/6 403/2/6
f 403/2/6 401/2/6 404/2/6
f 404/2/6 401/2/6 405/2/6
f 406/2/6 407/2/6 409/2/6
f 409/2/6 407/2/6 410/2/6
f 408/2/6 409/2/6 412/2/6
f 412/2/6 409/2/6 413/2/6
f 410/2/6 411/2/6 414/2/6
f 414/2/6 411/2/6 415/2/6
f 416/2/6 417/2/6 418/2/6
f 418/2/6 417/2/6 419/2/6
f 420/2/6 421/2/6 422/2/6
f 422/2/6 421/2/6 423/2/6
f 424/2/6 425/2/6 428/2/6
f 428/2/6 425/2/6 429/2/6
f 426/2/6 427/2/6 430/2/6
f 430/2/6 427/2/6 431/2/6
f 432/2/6 433/2/6 434/2/6
f 434/2/6 433/2/6 435/2/6
f 436/1/6 437/1/6 439/1/6
f 439/1/6 437/1/6 440/1/6
f 438/1/6 439/1/6 443/1/6
f 443/1/6 439/1/6 444/1/6
f 440/1/6 441/1/6 445/1/6
f 445/1/6 441/1/6 446/1/6
f 442/1/6 443/1/6 448/1/6
f 448/1/6 443/1/6 449/1/6
f 446/1/6 447/1/6 452/1/6
f 452/1/6 447/1/6 453/1/6
f 449/1/6 450/1/6 454/1/6
f 454/1/6 450/1/6 455/1/6
f 451/1/6 452/1/6 456/1/6
f 456/1/6 452/1/6 457/1/6
f 455/1/6 456/1/6 458/1/6
f 458/1/6 456/1/6 459/1/6
f 460/1/6 461/1/6 463/1/6
f 463/1/6 461/1/6 464/1/6
f 462/1/6 463/1/6 466/1/6
f 466/1/6 463/1/6 467/1/6
f 464/1/6 465/1/6 468/1/6
f 468/1/6 465/1/6 469/1/6
f 467/1/6 468/1/6 470/1/6
f 470/1/6 468/1/6 471/1/6
f 472/1/6 473/1/6 474/1/6
f 474/1/6 473/1/6 475/1/6
