# MagicaVoxel @ Ephtracy

# material
mtllib ore.mtl
usemtl palette

# normals
vn -1 0 0
vn 1 0 0
vn 0 0 1
vn 0 0 -1
vn 0 -1 0
vn 0 1 0

# texcoords
vt 0.0683594 0.5
vt 0.974609 0.5
vt 0.978516 0.5

# verts
v -3.5 2 -1.5
v -3.5 2 -2.5
v -3.5 3 -1.5
v -3.5 3 -2.5
v -2.5 1 1.5
v -2.5 1 0.5
v -2.5 1 -0.5
v -2.5 1 -2.5
v -2.5 1 -3.5
v -2.5 2 1.5
v -2.5 2 0.5
v -2.5 2 -0.5
v -2.5 2 -1.5
v -2.5 2 -2.5
v -2.5 2 -3.5
v -2.5 3 1.5
v -2.5 3 0.5
v -2.5 3 -0.5
v -2.5 3 -1.5
v -2.5 3 -2.5
v -2.5 3 -3.5
v -2.5 4 0.5
v -2.5 4 -0.5
v -2.5 4 -2.5
v -2.5 5 -0.5
v -2.5 5 -2.5
v -2.5 6 0.5
v -2.5 6 -0.5
v -1.5 1 0.5
v -1.5 1 -0.5
v -1.5 2 0.5
v -1.5 2 -0.5
v -1.5 2 -3.5
v -1.5 2 -4.5
v -1.5 3 -0.5
v -1.5 3 -2.5
v -1.5 3 -3.5
v -1.5 3 -4.5
v -1.5 4 -0.5
v -1.5 4 -2.5
v -1.5 4 -3.5
v -1.5 5 -0.5
v -1.5 5 -2.5
v -1.5 6 -0.5
v -1.5 6 -2.5
v -0.5 0 1.5
v -0.5 0 0.5
v -0.5 0 -2.5
v -0.5 1 1.5
v -0.5 1 0.5
v -0.5 1 -2.5
v -0.5 1 -3.5
v -0.5 1 -4.5
v -0.5 2 2.5
v -0.5 2 1.5
v -0.5 2 -3.5
v -0.5 2 -4.5
v -0.5 3 2.5
v -0.5 3 1.5
v -0.5 3 0.5
v -0.5 4 1.5
v -0.5 4 0.5
v -0.5 4 -2.5
v -0.5 4 -3.5
v -0.5 5 -2.5
v -0.5 5 -3.5
v 0.5 0 -2.5
v 0.5 0 -3.5
v 0.5 1 2.5
v 0.5 1 1.5
v 0.5 1 -2.5
v 0.5 1 -3.5
v 0.5 2 2.5
v 0.5 2 1.5
v 0.5 2 -2.5
v 0.5 2 -3.5
v 0.5 3 -2.5
v 0.5 3 -3.5
v 0.5 3 -4.5
v 0.5 4 -3.5
v 0.5 4 -4.5
v 0.5 5 0.5
v 0.5 5 -0.5
v 0.5 5 -1.5
v 0.5 5 -2.5
v 0.5 6 0.5
v 0.5 6 -0.5
v 0.5 6 -1.5
v 0.5 6 -2.5
v 1.5 0 1.5
v 1.5 0 0.5
v 1.5 1 1.5
v 1.5 1 0.5
v 1.5 1 -3.5
v 1.5 1 -4.5
v 1.5 2 2.5
v 1.5 2 1.5
v 1.5 2 -3.5
v 1.5 2 -4.5
v 1.5 3 2.5
v 1.5 3 1.5
v 1.5 4 1.5
v 1.5 4 0.5
v 1.5 5 1.5
v 1.5 5 0.5
v 2.5 2 0.5
v 2.5 2 -0.5
v 2.5 3 0.5
v 2.5 3 -0.5
v -1.5 5 0.5
v -1.5 5 -0.5
v -1.5 6 0.5
v -1.5 6 -0.5
v -0.5 2 -2.5
v -0.5 2 -3.5
v -0.5 3 -2.5
v -0.5 3 -3.5
v -0.5 5 -1.5
v -0.5 5 -2.5
v -0.5 6 -1.5
v -0.5 6 -2.5
v 0.5 0 1.5
v 0.5 0 0.5
v 0.5 1 1.5
v 0.5 1 0.5
v 0.5 1 -3.5
v 0.5 1 -4.5
v 0.5 2 2.5
v 0.5 2 1.5
v 0.5 3 2.5
v 0.5 3 1.5
v 0.5 3 -3.5
v 0.5 3 -4.5
v 1.5 0 -0.5
v 1.5 0 -1.5
v 1.5 0 -2.5
v 1.5 0 -3.5
v 1.5 1 2.5
v 1.5 1 1.5
v 1.5 1 -0.5
v 1.5 1 -1.5
v 1.5 1 -2.5
v 1.5 1 -3.5
v 1.5 2 2.5
v 1.5 2 1.5
v 1.5 2 0.5
v 1.5 2 -0.5
v 1.5 2 -2.5
v 1.5 2 -3.5
v 1.5 3 0.5
v 1.5 3 -0.5
v 1.5 3 -2.5
v 1.5 3 -3.5
v 1.5 3 -4.5
v 1.5 4 -3.5
v 1.5 4 -4.5
v 1.5 5 0.5
v 1.5 5 -0.5
v 1.5 5 -1.5
v 1.5 5 -2.5
v 1.5 5 -3.5
v 1.5 6 0.5
v 1.5 6 -0.5
v 1.5 6 -1.5
v 1.5 6 -2.5
v 2.5 0 0.5
v 2.5 0 -0.5
v 2.5 1 0.5
v 2.5 1 -0.5
v 2.5 1 -1.5
v 2.5 1 -2.5
v 2.5 1 -3.5
v 2.5 1 -4.5
v 2.5 2 -1.5
v 2.5 2 -2.5
v 2.5 2 -3.5
v 2.5 2 -4.5
v 2.5 3 -1.5
v 2.5 3 -2.5
v 2.5 3 -3.5
v 2.5 4 1.5
v 2.5 4 0.5
v 2.5 5 1.5
v 2.5 5 0.5
v 2.5 5 -0.5
v 2.5 5 -1.5
v 2.5 6 -0.5
v 2.5 6 -1.5
v 3.5 0 1.5
v 3.5 0 0.5
v 3.5 0 -1.5
v 3.5 0 -2.5
v 3.5 1 1.5
v 3.5 1 0.5
v 3.5 1 -0.5
v 3.5 1 -1.5
v 3.5 1 -2.5
v 3.5 2 2.5
v 3.5 2 1.5
v 3.5 2 0.5
v 3.5 2 -0.5
v 3.5 2 -1.5
v 3.5 3 2.5
v 3.5 3 1.5
v 3.5 3 0.5
v 3.5 3 -0.5
v 3.5 3 -1.5
v 3.5 3 -2.5
v 3.5 4 0.5
v 3.5 4 -0.5
v 3.5 4 -1.5
v 3.5 4 -2.5
v 3.5 5 0.5
v 3.5 5 -1.5
v 4.5 1 1.5
v 4.5 1 0.5
v 4.5 2 1.5
v 4.5 2 0.5
v 4.5 2 -0.5
v 4.5 3 1.5
v 4.5 3 0.5
v 4.5 3 -0.5
v 4.5 3 -1.5
v 4.5 4 1.5
v 4.5 4 0.5
v 4.5 4 -0.5
v 4.5 4 -1.5
v 4.5 4 -2.5
v 4.5 5 -1.5
v 4.5 5 -2.5
v -0.5 2 2.5
v -0.5 3 2.5
v 0.5 1 2.5
v 0.5 2 2.5
v 0.5 3 2.5
v 1.5 1 2.5
v 1.5 2 2.5
v 1.5 3 2.5
v 3.5 2 2.5
v 3.5 3 2.5
v -2.5 1 1.5
v -2.5 2 1.5
v -2.5 3 1.5
v -1.5 1 1.5
v -1.5 2 1.5
v -0.5 0 1.5
v -0.5 1 1.5
v -0.5 2 1.5
v -0.5 3 1.5
v -0.5 4 1.5
v 0.5 0 1.5
v 0.5 1 1.5
v 0.5 2 1.5
v 0.5 3 1.5
v 1.5 0 1.5
v 1.5 1 1.5
v 1.5 2 1.5
v 1.5 3 1.5
v 1.5 4 1.5
v 1.5 5 1.5
v 2.5 0 1.5
v 2.5 1 1.5
v 2.5 4 1.5
v 2.5 5 1.5
v 3.5 0 1.5
v 3.5 1 1.5
v 3.5 2 1.5
v 3.5 3 1.5
v 3.5 4 1.5
v 4.5 1 1.5
v 4.5 2 1.5
v 4.5 3 1.5
v 4.5 4 1.5
v -2.5 3 0.5
v -2.5 4 0.5
v -2.5 6 0.5
v -1.5 4 0.5
v -1.5 5 0.5
v -1.5 6 0.5
v -0.5 3 0.5
v -0.5 4 0.5
v -0.5 5 0.5
v 0.5 0 0.5
v 0.5 1 0.5
v 0.5 4 0.5
v 0.5 5 0.5
v 0.5 6 0.5
v 1.5 0 0.5
v 1.5 1 0.5
v 1.5 4 0.5
v 1.5 5 0.5
v 1.5 6 0.5
v 2.5 4 0.5
v 2.5 5 0.5
v 3.5 2 0.5
v 3.5 3 0.5
v 3.5 4 0.5
v 3.5 5 0.5
v 4.5 2 0.5
v 4.5 3 0.5
v -2.5 1 -0.5
v -2.5 2 -0.5
v -1.5 1 -0.5
v -1.5 2 -0.5
v -1.5 5 -0.5
v -1.5 6 -0.5
v -0.5 5 -0.5
v -0.5 6 -0.5
v 0.5 5 -0.5
v 0.5 6 -0.5
v 1.5 2 -0.5
v 1.5 3 -0.5
v 1.5 5 -0.5
v 1.5 6 -0.5
v 2.5 2 -0.5
v 2.5 3 -0.5
v 2.5 5 -0.5
v 2.5 6 -0.5
v 3.5 3 -0.5
v 3.5 4 -0.5
v 4.5 3 -0.5
v 4.5 4 -0.5
v -3.5 2 -1.5
v -3.5 3 -1.5
v -2.5 2 -1.5
v -2.5 3 -1.5
v 1.5 0 -1.5
v 1.5 1 -1.5
v 2.5 1 -1.5
v 3.5 0 -1.5
v 3.5 1 -1.5
v 3.5 4 -1.5
v 3.5 5 -1.5
v 4.5 4 -1.5
v 4.5 5 -1.5
v -0.5 2 -3.5
v -0.5 3 -3.5
v 0.5 2 -3.5
v 0.5 3 -3.5
v 1.5 1 -3.5
v 1.5 2 -3.5
v 2.5 1 -3.5
v 2.5 2 -3.5
v -2.5 1 0.5
v -2.5 2 0.5
v -1.5 1 0.5
v -1.5 2 0.5
v 1.5 2 0.5
v 1.5 3 0.5
v 2.5 0 0.5
v 2.5 1 0.5
v 2.5 2 0.5
v 2.5 3 0.5
v 3.5 0 0.5
v 3.5 1 0.5
v 3.5 2 0.5
v 3.5 3 0.5
v 3.5 4 0.5
v 4.5 1 0.5
v 4.5 2 0.5
v 4.5 3 0.5
v 4.5 4 0.5
v -2.5 3 -0.5
v -2.5 4 -0.5
v -2.5 5 -0.5
v -2.5 6 -0.5
v -1.5 3 -0.5
v -1.5 4 -0.5
v -1.5 5 -0.5
v -1.5 6 -0.5
v 1.5 0 -0.5
v 1.5 1 -0.5
v 2.5 0 -0.5
v 2.5 1 -0.5
v 3.5 2 -0.5
v 3.5 3 -0.5
v 4.5 2 -0.5
v 4.5 3 -0.5
v -0.5 5 -1.5
v -0.5 6 -1.5
v 0.5 5 -1.5
v 0.5 6 -1.5
v 1.5 5 -1.5
v 1.5 6 -1.5
v 2.5 1 -1.5
v 2.5 2 -1.5
v 2.5 3 -1.5
v 2.5 5 -1.5
v 2.5 6 -1.5
v 3.5 1 -1.5
v 3.5 2 -1.5
v 3.5 3 -1.5
v 3.5 4 -1.5
v 4.5 3 -1.5
v 4.5 4 -1.5
v -3.5 2 -2.5
v -3.5 3 -2.5
v -2.5 2 -2.5
v -2.5 3 -2.5
v -2.5 4 -2.5
v -2.5 5 -2.5
v -1.5 4 -2.5
v -1.5 5 -2.5
v -1.5 6 -2.5
v -0.5 0 -2.5
v -0.5 1 -2.5
v -0.5 2 -2.5
v -0.5 3 -2.5
v -0.5 4 -2.5
v -0.5 5 -2.5
v -0.5 6 -2.5
v 0.5 0 -2.5
v 0.5 1 -2.5
v 0.5 2 -2.5
v 0.5 3 -2.5
v 0.5 5 -2.5
v 0.5 6 -2.5
v 1.5 0 -2.5
v 1.5 1 -2.5
v 1.5 2 -2.5
v 1.5 3 -2.5
v 1.5 5 -2.5
v 1.5 6 -2.5
v 2.5 1 -2.5
v 2.5 2 -2.5
v 2.5 3 -2.5
v 2.5 4 -2.5
v 2.5 5 -2.5
v 3.5 0 -2.5
v 3.5 1 -2.5
v 3.5 3 -2.5
v 3.5 4 -2.5
v 3.5 5 -2.5
v 4.5 4 -2.5
v 4.5 5 -2.5
v -2.5 1 -3.5
v -2.5 2 -3.5
v -2.5 3 -3.5
v -1.5 1 -3.5
v -1.5 2 -3.5
v -1.5 3 -3.5
v -1.5 4 -3.5
v -0.5 1 -3.5
v -0.5 2 -3.5
v -0.5 3 -3.5
v -0.5 4 -3.5
v -0.5 5 -3.5
v 0.5 0 -3.5
v 0.5 1 -3.5
v 0.5 3 -3.5
v 0.5 4 -3.5
v 1.5 0 -3.5
v 1.5 1 -3.5
v 1.5 2 -3.5
v 1.5 3 -3.5
v 1.5 4 -3.5
v 1.5 5 -3.5
v 2.5 2 -3.5
v 2.5 3 -3.5
v -1.5 2 -4.5
v -1.5 3 -4.5
v -0.5 1 -4.5
v -0.5 2 -4.5
v 0.5 1 -4.5
v 0.5 3 -4.5
v 0.5 4 -4.5
v 1.5 1 -4.5
v 1.5 2 -4.5
v 1.5 3 -4.5
v 1.5 4 -4.5
v 2.5 1 -4.5
v 2.5 2 -4.5
v -0.5 0 1.5
v 0.5 0 1.5
v 1.5 0 1.5
v 2.5 0 1.5
v 3.5 0 1.5
v -0.5 0 0.5
v 0.5 0 0.5
v 1.5 0 0.5
v 2.5 0 0.5
v 3.5 0 0.5
v 0.5 0 -0.5
v 1.5 0 -0.5
v 2.5 0 -0.5
v 1.5 0 -1.5
v 3.5 0 -1.5
v -0.5 0 -2.5
v 0.5 0 -2.5
v 1.5 0 -2.5
v 3.5 0 -2.5
v 0.5 0 -3.5
v 1.5 0 -3.5
v 0.5 1 2.5
v 1.5 1 2.5
v -2.5 1 1.5
v -1.5 1 1.5
v -0.5 1 1.5
v 0.5 1 1.5
v 1.5 1 1.5
v 3.5 1 1.5
v 4.5 1 1.5
v -2.5 1 0.5
v -1.5 1 0.5
v -0.5 1 0.5
v 0.5 1 0.5
v 1.5 1 0.5
v 2.5 1 0.5
v 3.5 1 0.5
v 4.5 1 0.5
v -2.5 1 -0.5
v -1.5 1 -0.5
v 1.5 1 -0.5
v 2.5 1 -0.5
v 3.5 1 -0.5
v 1.5 1 -1.5
v 2.5 1 -1.5
v 3.5 1 -1.5
v -2.5 1 -2.5
v -1.5 1 -2.5
v -0.5 1 -2.5
v 0.5 1 -2.5
v -2.5 1 -3.5
v -1.5 1 -3.5
v -0.5 1 -3.5
v 0.5 1 -3.5
v 1.5 1 -3.5
v 2.5 1 -3.5
v -0.5 1 -4.5
v 0.5 1 -4.5
v 1.5 1 -4.5
v 2.5 1 -4.5
v -0.5 2 2.5
v 0.5 2 2.5
v 1.5 2 2.5
v 3.5 2 2.5
v -0.5 2 1.5
v 0.5 2 1.5
v 1.5 2 1.5
v 3.5 2 1.5
v -2.5 2 0.5
v -1.5 2 0.5
v 3.5 2 0.5
v 4.5 2 0.5
v -2.5 2 -0.5
v -1.5 2 -0.5
v 3.5 2 -0.5
v 4.5 2 -0.5
v -3.5 2 -1.5
v -2.5 2 -1.5
v -3.5 2 -2.5
v -2.5 2 -2.5
v 1.5 2 -2.5
v 2.5 2 -2.5
v -1.5 2 -3.5
v -0.5 2 -3.5
v 1.5 2 -3.5
v 2.5 2 -3.5
v -1.5 2 -4.5
v -0.5 2 -4.5
v 3.5 3 1.5
v 4.5 3 1.5
v 1.5 3 0.5
v 2.5 3 0.5
v 3.5 3 0.5
v 4.5 3 0.5
v 1.5 3 -0.5
v 2.5 3 -0.5
v 3.5 3 -0.5
v 4.5 3 -0.5
v 2.5 3 -1.5
v 3.5 3 -1.5
v 4.5 3 -1.5
v -0.5 3 -2.5
v 0.5 3 -2.5
v 2.5 3 -2.5
v 3.5 3 -2.5
v -0.5 3 -3.5
v 0.5 3 -3.5
v 1.5 3 -3.5
v 0.5 3 -4.5
v 1.5 3 -4.5
v -2.5 4 -0.5
v -1.5 4 -0.5
v 3.5 4 -1.5
v 4.5 4 -1.5
v -2.5 4 -2.5
v -1.5 4 -2.5
v 3.5 4 -2.5
v 4.5 4 -2.5
v 2.5 1 -1.5
v 3.5 1 -1.5
v 2.5 1 -2.5
v 3.5 1 -2.5
v 0.5 2 2.5
v 1.5 2 2.5
v 0.5 2 1.5
v 1.5 2 1.5
v 3.5 2 1.5
v 4.5 2 1.5
v 1.5 2 0.5
v 2.5 2 0.5
v 3.5 2 0.5
v 4.5 2 0.5
v 1.5 2 -0.5
v 2.5 2 -0.5
v -0.5 2 -2.5
v 0.5 2 -2.5
v -0.5 2 -3.5
v 0.5 2 -3.5
v 1.5 2 -3.5
v 2.5 2 -3.5
v 1.5 2 -4.5
v 2.5 2 -4.5
v -0.5 3 2.5
v 0.5 3 2.5
v 1.5 3 2.5
v 3.5 3 2.5
v -2.5 3 1.5
v -0.5 3 1.5
v 0.5 3 1.5
v 1.5 3 1.5
v 3.5 3 1.5
v -2.5 3 0.5
v -0.5 3 0.5
v 3.5 3 0.5
v 4.5 3 0.5
v -2.5 3 -0.5
v -1.5 3 -0.5
v 3.5 3 -0.5
v 4.5 3 -0.5
v -3.5 3 -1.5
v -2.5 3 -1.5
v -3.5 3 -2.5
v -2.5 3 -2.5
v -1.5 3 -2.5
v 1.5 3 -2.5
v 2.5 3 -2.5
v -2.5 3 -3.5
v -1.5 3 -3.5
v -0.5 3 -3.5
v 0.5 3 -3.5
v 1.5 3 -3.5
v 2.5 3 -3.5
v -1.5 3 -4.5
v 0.5 3 -4.5
v -0.5 4 1.5
v 1.5 4 1.5
v 2.5 4 1.5
v 3.5 4 1.5
v 4.5 4 1.5
v -0.5 4 0.5
v 0.5 4 0.5
v 1.5 4 0.5
v 2.5 4 0.5
v 3.5 4 0.5
v 4.5 4 0.5
v 3.5 4 -0.5
v 4.5 4 -0.5
v 3.5 4 -1.5
v 4.5 4 -1.5
v -1.5 4 -2.5
v -0.5 4 -2.5
v -1.5 4 -3.5
v -0.5 4 -3.5
v 0.5 4 -3.5
v 1.5 4 -3.5
v 0.5 4 -4.5
v 1.5 4 -4.5
v 1.5 5 1.5
v 2.5 5 1.5
v -1.5 5 0.5
v -0.5 5 0.5
v 0.5 5 0.5
v 1.5 5 0.5
v 2.5 5 0.5
v 3.5 5 0.5
v -2.5 5 -0.5
v -1.5 5 -0.5
v -0.5 5 -0.5
v 0.5 5 -0.5
v 1.5 5 -0.5
v 2.5 5 -0.5
v -0.5 5 -1.5
v 0.5 5 -1.5
v 1.5 5 -1.5
v 2.5 5 -1.5
v 3.5 5 -1.5
v 4.5 5 -1.5
v -2.5 5 -2.5
v -1.5 5 -2.5
v -0.5 5 -2.5
v 0.5 5 -2.5
v 1.5 5 -2.5
v 2.5 5 -2.5
v 3.5 5 -2.5
v 4.5 5 -2.5
v -0.5 5 -3.5
v 1.5 5 -3.5
v -2.5 6 0.5
v -1.5 6 0.5
v 0.5 6 0.5
v 1.5 6 0.5
v -2.5 6 -0.5
v -1.5 6 -0.5
v -0.5 6 -0.5
v 0.5 6 -0.5
v 1.5 6 -0.5
v 2.5 6 -0.5
v -0.5 6 -1.5
v 0.5 6 -1.5
v 1.5 6 -1.5
v 2.5 6 -1.5
v -1.5 6 -2.5
v -0.5 6 -2.5
v 0.5 6 -2.5
v 1.5 6 -2.5

# faces
f 3/2/1 2/2/1 1/2/1
f 4/2/1 2/2/1 3/2/1
f 10/1/1 6/1/1 5/1/1
f 11/1/1 6/1/1 10/1/1
f 12/3/1 8/3/1 7/3/1
f 13/3/1 8/3/1 12/3/1
f 14/1/1 9/1/1 8/1/1
f 14/3/1 8/3/1 13/3/1
f 15/1/1 9/1/1 14/1/1
f 16/3/1 13/3/1 12/3/1
f 16/3/1 11/3/1 10/3/1
f 16/3/1 12/3/1 11/3/1
f 17/3/1 13/3/1 16/3/1
f 18/3/1 13/3/1 17/3/1
f 19/3/1 13/3/1 18/3/1
f 20/2/1 15/2/1 14/2/1
f 21/2/1 15/2/1 20/2/1
f 22/3/1 18/3/1 17/3/1
f 23/3/1 18/3/1 22/3/1
f 25/2/1 23/2/1 22/2/1
f 25/2/1 24/2/1 23/2/1
f 26/2/1 24/2/1 25/2/1
f 27/2/1 25/2/1 22/2/1
f 28/2/1 25/2/1 27/2/1
f 31/3/1 30/3/1 29/3/1
f 32/3/1 30/3/1 31/3/1
f 37/2/1 34/2/1 33/2/1
f 38/2/1 34/2/1 37/2/1
f 39/3/1 36/3/1 35/3/1
f 40/1/1 37/1/1 36/1/1
f 40/3/1 36/3/1 39/3/1
f 41/1/1 37/1/1 40/1/1
f 44/2/1 43/2/1 42/2/1
f 45/2/1 43/2/1 44/2/1
f 49/2/1 47/2/1 46/2/1
f 50/3/1 48/3/1 47/3/1
f 50/2/1 47/2/1 49/2/1
f 51/3/1 48/3/1 50/3/1
f 56/2/1 53/2/1 52/2/1
f 57/2/1 53/2/1 56/2/1
f 58/1/1 55/1/1 54/1/1
f 59/1/1 55/1/1 58/1/1
f 61/3/1 60/3/1 59/3/1
f 62/3/1 60/3/1 61/3/1
f 65/2/1 64/2/1 63/2/1
f 66/2/1 64/2/1 65/2/1
f 71/3/1 68/3/1 67/3/1
f 72/3/1 68/3/1 71/3/1
f 73/2/1 70/2/1 69/2/1
f 74/2/1 70/2/1 73/2/1
f 77/2/1 76/2/1 75/2/1
f 78/2/1 76/2/1 77/2/1
f 80/2/1 79/2/1 78/2/1
f 81/2/1 79/2/1 80/2/1
f 86/2/1 83/2/1 82/2/1
f 87/2/1 83/2/1 86/2/1
f 88/2/1 85/2/1 84/2/1
f 89/2/1 85/2/1 88/2/1
f 92/2/1 91/2/1 90/2/1
f 93/2/1 91/2/1 92/2/1
f 98/2/1 95/2/1 94/2/1
f 99/2/1 95/2/1 98/2/1
f 100/2/1 97/2/1 96/2/1
f 101/2/1 97/2/1 100/2/1
f 104/2/1 103/2/1 102/2/1
f 105/2/1 103/2/1 104/2/1
f 108/2/1 107/2/1 106/2/1
f 109/2/1 107/2/1 108/2/1
f 110/2/2 111/2/2 112/2/2
f 112/2/2 111/2/2 113/2/2
f 114/2/2 115/2/2 116/2/2
f 116/2/2 115/2/2 117/2/2
f 118/2/2 119/2/2 120/2/2
f 120/2/2 119/2/2 121/2/2
f 122/2/2 123/2/2 124/2/2
f 124/2/2 123/2/2 125/2/2
f 128/1/2 129/1/2 130/1/2
f 130/1/2 129/1/2 131/1/2
f 126/2/2 127/2/2 132/2/2
f 132/2/2 127/2/2 133/2/2
f 134/3/2 135/3/2 140/3/2
f 140/3/2 135/3/2 141/3/2
f 136/3/2 137/3/2 142/3/2
f 142/3/2 137/3/2 143/3/2
f 138/2/2 139/2/2 144/2/2
f 144/2/2 139/2/2 145/2/2
f 142/2/2 143/2/2 148/2/2
f 148/2/2 143/2/2 149/2/2
f 146/3/2 147/3/2 150/3/2
f 150/3/2 147/3/2 151/3/2
f 152/2/2 153/2/2 155/2/2
f 153/2/2 154/2/2 155/2/2
f 155/2/2 154/2/2 156/2/2
f 152/2/2 155/2/2 160/2/2
f 160/2/2 155/2/2 161/2/2
f 157/2/2 158/2/2 162/2/2
f 162/2/2 158/2/2 163/2/2
f 159/2/2 160/2/2 164/2/2
f 164/2/2 160/2/2 165/2/2
f 166/3/2 167/3/2 168/3/2
f 168/3/2 167/3/2 169/3/2
f 170/2/2 171/2/2 174/2/2
f 174/2/2 171/2/2 175/2/2
f 172/2/2 173/2/2 176/2/2
f 176/2/2 173/2/2 177/2/2
f 174/2/2 175/2/2 178/2/2
f 175/2/2 176/2/2 178/2/2
f 178/2/2 176/2/2 179/2/2
f 179/2/2 176/2/2 180/2/2
f 181/2/2 182/2/2 183/2/2
f 183/2/2 182/2/2 184/2/2
f 185/2/2 186/2/2 187/2/2
f 187/2/2 186/2/2 188/2/2
f 189/1/2 190/1/2 193/1/2
f 193/1/2 190/1/2 194/1/2
f 191/3/2 192/3/2 196/3/2
f 196/3/2 192/3/2 197/3/2
f 194/2/2 195/2/2 200/2/2
f 195/1/2 196/1/2 201/1/2
f 200/2/2 195/2/2 201/2/2
f 201/1/2 196/1/2 202/1/2
f 198/2/2 199/2/2 203/2/2
f 199/2/2 200/2/2 203/2/2
f 203/2/2 200/2/2 204/2/2
f 204/2/2 200/2/2 205/2/2
f 201/2/2 202/2/2 206/2/2
f 206/2/2 202/2/2 207/2/2
f 205/2/2 206/2/2 209/2/2
f 209/2/2 206/2/2 210/2/2
f 207/2/2 208/2/2 211/2/2
f 211/2/2 208/2/2 212/2/2
f 209/2/2 210/2/2 213/2/2
f 210/2/2 211/2/2 213/2/2
f 213/2/2 211/2/2 214/2/2
f 215/2/2 216/2/2 217/2/2
f 217/2/2 216/2/2 218/2/2
f 218/2/2 219/2/2 221/2/2
f 221/2/2 219/2/2 222/2/2
f 220/1/2 221/1/2 224/1/2
f 224/1/2 221/1/2 225/1/2
f 222/2/2 223/2/2 226/2/2
f 226/2/2 223/2/2 227/2/2
f 227/2/2 228/2/2 229/2/2
f 229/2/2 228/2/2 230/2/2
f 234/1/3 232/1/3 231/1/3
f 235/1/3 232/1/3 234/1/3
f 236/2/3 234/2/3 233/2/3
f 237/2/3 234/2/3 236/2/3
f 239/2/3 238/2/3 237/2/3
f 240/2/3 238/2/3 239/2/3
f 244/1/3 242/1/3 241/1/3
f 245/3/3 243/3/3 242/3/3
f 245/1/3 242/1/3 244/1/3
f 247/3/3 245/3/3 244/3/3
f 248/3/3 243/3/3 245/3/3
f 248/3/3 245/3/3 247/3/3
f 249/3/3 243/3/3 248/3/3
f 251/2/3 247/2/3 246/2/3
f 252/3/3 248/3/3 247/3/3
f 252/2/3 247/2/3 251/2/3
f 253/3/3 248/3/3 252/3/3
f 254/3/3 250/3/3 249/3/3
f 257/3/3 254/3/3 253/3/3
f 258/3/3 250/3/3 254/3/3
f 258/3/3 254/3/3 257/3/3
f 259/3/3 250/3/3 258/3/3
f 261/2/3 256/2/3 255/2/3
f 261/2/3 257/2/3 256/2/3
f 262/2/3 257/2/3 261/2/3
f 263/2/3 260/2/3 259/2/3
f 263/2/3 259/2/3 258/2/3
f 264/2/3 260/2/3 263/2/3
f 265/1/3 262/1/3 261/1/3
f 266/2/3 257/2/3 262/2/3
f 266/1/3 262/1/3 265/1/3
f 267/2/3 257/2/3 266/2/3
f 268/2/3 263/2/3 258/2/3
f 269/2/3 263/2/3 268/2/3
f 270/2/3 267/2/3 266/2/3
f 271/2/3 267/2/3 270/2/3
f 272/1/3 269/1/3 268/1/3
f 273/1/3 269/1/3 272/1/3
f 277/3/3 275/3/3 274/3/3
f 277/2/3 276/2/3 275/2/3
f 278/2/3 276/2/3 277/2/3
f 279/2/3 276/2/3 278/2/3
f 280/3/3 277/3/3 274/3/3
f 280/3/3 278/3/3 277/3/3
f 281/3/3 278/3/3 280/3/3
f 282/3/3 278/3/3 281/3/3
f 285/1/3 282/1/3 281/1/3
f 286/1/3 282/1/3 285/1/3
f 288/2/3 284/2/3 283/2/3
f 289/2/3 284/2/3 288/2/3
f 290/2/3 286/2/3 285/2/3
f 290/2/3 287/2/3 286/2/3
f 291/2/3 287/2/3 290/2/3
f 292/2/3 287/2/3 291/2/3
f 297/2/3 294/2/3 293/2/3
f 298/2/3 294/2/3 297/2/3
f 299/2/3 296/2/3 295/2/3
f 300/2/3 296/2/3 299/2/3
f 303/3/3 302/3/3 301/3/3
f 304/3/3 302/3/3 303/3/3
f 307/2/3 306/2/3 305/2/3
f 308/2/3 306/2/3 307/2/3
f 309/1/3 308/1/3 307/1/3
f 310/1/3 308/1/3 309/1/3
f 315/2/3 312/2/3 311/2/3
f 316/2/3 312/2/3 315/2/3
f 317/2/3 314/2/3 313/2/3
f 318/2/3 314/2/3 317/2/3
f 321/2/3 320/2/3 319/2/3
f 322/2/3 320/2/3 321/2/3
f 325/2/3 324/2/3 323/2/3
f 326/2/3 324/2/3 325/2/3
f 329/3/3 328/3/3 327/3/3
f 330/3/3 329/3/3 327/3/3
f 331/3/3 329/3/3 330/3/3
f 334/2/3 333/2/3 332/2/3
f 335/2/3 333/2/3 334/2/3
f 338/2/3 337/2/3 336/2/3
f 339/2/3 337/2/3 338/2/3
f 342/2/3 341/2/3 340/2/3
f 343/2/3 341/2/3 342/2/3
f 344/1/4 345/1/4 346/1/4
f 346/1/4 345/1/4 347/1/4
f 348/2/4 349/2/4 352/2/4
f 352/2/4 349/2/4 353/2/4
f 350/1/4 351/1/4 354/1/4
f 354/1/4 351/1/4 355/1/4
f 355/2/4 356/2/4 359/2/4
f 359/2/4 356/2/4 360/2/4
f 357/1/4 358/1/4 361/1/4
f 361/1/4 358/1/4 362/1/4
f 363/3/4 364/3/4 367/3/4
f 367/3/4 364/3/4 368/3/4
f 365/2/4 366/2/4 369/2/4
f 369/2/4 366/2/4 370/2/4
f 371/3/4 372/3/4 373/3/4
f 373/3/4 372/3/4 374/3/4
f 375/2/4 376/2/4 377/2/4
f 377/2/4 376/2/4 378/2/4
f 379/1/4 380/1/4 381/1/4
f 381/1/4 380/1/4 382/1/4
f 383/2/4 384/2/4 388/2/4
f 388/2/4 384/2/4 389/2/4
f 385/1/4 386/1/4 390/1/4
f 386/2/4 387/2/4 391/2/4
f 390/1/4 386/1/4 391/1/4
f 391/2/4 387/2/4 392/2/4
f 392/2/4 393/2/4 394/2/4
f 394/2/4 393/2/4 395/2/4
f 396/2/4 397/2/4 398/2/4
f 398/2/4 397/2/4 399/2/4
f 400/2/4 401/2/4 402/2/4
f 402/2/4 401/2/4 403/2/4
f 402/2/4 403/2/4 409/2/4
f 403/2/4 404/2/4 409/2/4
f 409/2/4 404/2/4 410/2/4
f 410/2/4 404/2/4 411/2/4
f 405/3/4 406/3/4 412/3/4
f 412/3/4 406/3/4 413/3/4
f 407/3/4 408/3/4 414/3/4
f 414/3/4 408/3/4 415/3/4
f 416/2/4 417/2/4 422/2/4
f 422/2/4 417/2/4 423/2/4
f 419/2/4 420/2/4 424/2/4
f 418/3/4 419/3/4 424/3/4
f 424/2/4 420/2/4 425/2/4
f 421/2/4 422/2/4 426/2/4
f 426/2/4 422/2/4 427/2/4
f 427/2/4 422/2/4 428/2/4
f 418/3/4 424/3/4 429/3/4
f 429/3/4 424/3/4 430/3/4
f 426/2/4 427/2/4 431/2/4
f 427/1/4 428/1/4 432/1/4
f 431/2/4 427/2/4 432/2/4
f 432/1/4 428/1/4 433/1/4
f 432/2/4 433/2/4 434/2/4
f 434/2/4 433/2/4 435/2/4
f 436/1/4 437/1/4 439/1/4
f 437/2/4 438/2/4 440/2/4
f 439/1/4 437/1/4 440/1/4
f 440/2/4 438/2/4 441/2/4
f 439/2/4 440/2/4 443/2/4
f 443/2/4 440/2/4 444/2/4
f 441/1/4 442/1/4 445/1/4
f 445/1/4 442/1/4 446/1/4
f 446/2/4 447/2/4 450/2/4
f 445/2/4 446/2/4 450/2/4
f 450/2/4 447/2/4 451/2/4
f 448/3/4 449/3/4 452/3/4
f 449/2/4 450/2/4 453/2/4
f 452/3/4 449/3/4 453/3/4
f 453/2/4 450/2/4 454/2/4
f 454/2/4 450/2/4 455/2/4
f 451/2/4 447/2/4 456/2/4
f 456/2/4 447/2/4 457/2/4
f 454/2/4 455/2/4 458/2/4
f 458/2/4 455/2/4 459/2/4
f 460/2/4 461/2/4 463/2/4
f 462/2/4 463/2/4 464/2/4
f 463/2/4 461/2/4 465/2/4
f 464/2/4 463/2/4 465/2/4
f 465/2/4 466/2/4 469/2/4
f 469/2/4 466/2/4 470/2/4
f 467/2/4 468/2/4 471/2/4
f 471/2/4 468/2/4 472/2/4
f 478/2/5 474/2/5 473/2/5
f 479/2/5 474/2/5 478/2/5
f 480/2/5 476/2/5 475/2/5
f 481/1/5 477/1/5 476/1/5
f 481/2/5 476/2/5 480/2/5
f 482/1/5 477/1/5 481/1/5
f 483/2/5 480/2/5 479/2/5
f 483/3/5 479/3/5 478/3/5
f 484/3/5 481/3/5 480/3/5
f 484/2/5 480/2/5 483/2/5
f 485/3/5 481/3/5 484/3/5
f 486/3/5 484/3/5 483/3/5
f 488/3/5 483/3/5 478/3/5
f 488/3/5 487/3/5 486/3/5
f 488/3/5 486/3/5 483/3/5
f 489/3/5 487/3/5 488/3/5
f 490/3/5 487/3/5 489/3/5
f 491/3/5 487/3/5 490/3/5
f 492/3/5 490/3/5 489/3/5
f 493/3/5 490/3/5 492/3/5
f 499/2/5 495/2/5 494/2/5
f 500/2/5 495/2/5 499/2/5
f 503/1/5 497/1/5 496/1/5
f 504/3/5 498/3/5 497/3/5
f 504/1/5 497/1/5 503/1/5
f 505/3/5 498/3/5 504/3/5
f 506/3/5 500/3/5 499/3/5
f 507/3/5 500/3/5 506/3/5
f 509/2/5 502/2/5 501/2/5
f 510/2/5 502/2/5 509/2/5
f 512/3/5 505/3/5 504/3/5
f 514/2/5 509/2/5 508/2/5
f 515/2/5 509/2/5 514/2/5
f 516/2/5 514/2/5 513/2/5
f 517/1/5 515/1/5 514/1/5
f 517/2/5 514/2/5 516/2/5
f 518/1/5 515/1/5 517/1/5
f 519/3/5 512/3/5 511/3/5
f 520/3/5 505/3/5 512/3/5
f 520/3/5 512/3/5 519/3/5
f 521/3/5 505/3/5 520/3/5
f 523/1/5 520/1/5 519/1/5
f 524/2/5 522/2/5 521/2/5
f 524/1/5 520/1/5 523/1/5
f 524/2/5 521/2/5 520/2/5
f 525/2/5 522/2/5 524/2/5
f 526/2/5 522/2/5 525/2/5
f 529/2/5 526/2/5 525/2/5
f 530/2/5 526/2/5 529/2/5
f 531/2/5 528/2/5 527/2/5
f 532/2/5 528/2/5 531/2/5
f 537/1/5 534/1/5 533/1/5
f 538/1/5 534/1/5 537/1/5
f 539/2/5 536/2/5 535/2/5
f 540/2/5 536/2/5 539/2/5
f 545/3/5 542/3/5 541/3/5
f 546/3/5 542/3/5 545/3/5
f 547/2/5 544/2/5 543/2/5
f 548/2/5 544/2/5 547/2/5
f 551/2/5 550/2/5 549/2/5
f 552/2/5 550/2/5 551/2/5
f 557/2/5 554/2/5 553/2/5
f 558/2/5 554/2/5 557/2/5
f 559/2/5 556/2/5 555/2/5
f 560/2/5 556/2/5 559/2/5
f 565/1/5 562/1/5 561/1/5
f 566/1/5 562/1/5 565/1/5
f 567/2/5 564/2/5 563/2/5
f 568/2/5 564/2/5 567/2/5
f 572/2/5 570/2/5 569/2/5
f 573/2/5 570/2/5 572/2/5
f 576/2/5 572/2/5 571/2/5
f 577/2/5 572/2/5 576/2/5
f 578/2/5 575/2/5 574/2/5
f 579/2/5 575/2/5 578/2/5
f 581/2/5 580/2/5 579/2/5
f 582/2/5 580/2/5 581/2/5
f 587/2/5 584/2/5 583/2/5
f 588/2/5 584/2/5 587/2/5
f 589/2/5 586/2/5 585/2/5
f 590/2/5 586/2/5 589/2/5
f 591/3/6 592/3/6 593/3/6
f 593/3/6 592/3/6 594/3/6
f 595/2/6 596/2/6 597/2/6
f 597/2/6 596/2/6 598/2/6
f 599/2/6 600/2/6 603/2/6
f 603/2/6 600/2/6 604/2/6
f 601/2/6 602/2/6 605/2/6
f 605/2/6 602/2/6 606/2/6
f 607/2/6 608/2/6 609/2/6
f 609/2/6 608/2/6 610/2/6
f 611/2/6 612/2/6 613/2/6
f 613/2/6 612/2/6 614/2/6
f 615/1/6 616/1/6 620/1/6
f 620/1/6 616/1/6 621/1/6
f 617/2/6 618/2/6 622/2/6
f 622/2/6 618/2/6 623/2/6
f 619/3/6 620/3/6 624/3/6
f 624/3/6 620/3/6 625/3/6
f 626/2/6 627/2/6 630/2/6
f 630/2/6 627/2/6 631/2/6
f 628/3/6 629/3/6 633/3/6
f 632/2/6 633/2/6 634/2/6
f 633/3/6 629/3/6 635/3/6
f 634/2/6 633/2/6 635/2/6
f 635/3/6 629/3/6 636/3/6
f 635/2/6 636/2/6 639/2/6
f 639/2/6 636/2/6 640/2/6
f 637/2/6 638/2/6 643/2/6
f 643/2/6 638/2/6 644/2/6
f 641/2/6 642/2/6 645/2/6
f 640/2/6 641/2/6 645/2/6
f 645/2/6 642/2/6 646/2/6
f 647/3/6 648/3/6 652/3/6
f 652/3/6 648/3/6 653/3/6
f 653/3/6 648/3/6 654/3/6
f 649/2/6 650/2/6 655/2/6
f 650/1/6 651/1/6 656/1/6
f 655/2/6 650/2/6 656/2/6
f 656/1/6 651/1/6 657/1/6
f 658/2/6 659/2/6 660/2/6
f 660/2/6 659/2/6 661/2/6
f 662/1/6 663/1/6 664/1/6
f 664/1/6 663/1/6 665/1/6
f 666/2/6 667/2/6 668/2/6
f 668/2/6 667/2/6 669/2/6
f 670/2/6 671/2/6 675/2/6
f 675/2/6 671/2/6 676/2/6
f 672/3/6 673/3/6 679/3/6
f 673/1/6 674/1/6 680/1/6
f 679/3/6 673/3/6 680/3/6
f 680/1/6 674/1/6 681/1/6
f 676/2/6 677/2/6 682/2/6
f 675/2/6 676/2/6 682/2/6
f 682/2/6 677/2/6 683/2/6
f 683/2/6 677/2/6 687/2/6
f 687/2/6 677/2/6 688/2/6
f 678/2/6 679/2/6 690/2/6
f 690/2/6 679/2/6 691/2/6
f 684/2/6 685/2/6 692/2/6
f 692/2/6 685/2/6 693/2/6
f 686/2/6 687/2/6 694/2/6
f 687/1/6 688/1/6 695/1/6
f 694/2/6 687/2/6 695/2/6
f 688/2/6 689/2/6 696/2/6
f 695/1/6 688/1/6 696/1/6
f 696/2/6 689/2/6 697/2/6
f 692/2/6 693/2/6 698/2/6
f 693/2/6 694/2/6 698/2/6
f 698/2/6 694/2/6 699/2/6
f 700/2/6 701/2/6 704/2/6
f 704/2/6 701/2/6 705/2/6
f 702/2/6 703/2/6 707/2/6
f 707/2/6 703/2/6 708/2/6
f 705/2/6 706/2/6 710/2/6
f 706/1/6 707/1/6 710/1/6
f 708/2/6 709/2/6 711/2/6
f 710/1/6 707/1/6 711/1/6
f 707/2/6 708/2/6 711/2/6
f 711/2/6 709/2/6 712/2/6
f 712/2/6 709/2/6 713/2/6
f 705/2/6 710/2/6 714/2/6
f 714/2/6 710/2/6 715/2/6
f 711/2/6 712/2/6 716/2/6
f 716/2/6 712/2/6 717/2/6
